<?xml version="1.0" encoding="utf-8"?>
<!-- Generator: Adobe Illustrator 15.0.2, SVG Export Plug-In . SVG Version: 6.00 Build 0)  -->
<!DOCTYPE svg PUBLIC "-//W3C//DTD SVG 1.1//EN" "http://www.w3.org/Graphics/SVG/1.1/DTD/svg11.dtd">
<svg version="1.1" id="Layer_1" xmlns="http://www.w3.org/2000/svg" xmlns:xlink="http://www.w3.org/1999/xlink" x="0px" y="0px"
	 width="193.514px" height="576.824px" viewBox="194.379 100.388 193.514 576.824"
	 enable-background="new 194.379 100.388 193.514 576.824" xml:space="preserve">
<g>
	<path fill="#FFFFFF" d="M326.684,114.821c26.729,0,48.646,19.779,48.646,49.982c0,30.203-20.312,52.922-47.311,52.922
		c-23.252,0-46.506-21.383-46.506-52.121C281.514,135.936,300.757,114.821,326.684,114.821 M216.029,107.07
		c-13.365,16.303-21.65,32.608-21.65,53.991c0,46.508,44.904,76.176,101.568,76.176c39.021,0,57.732-8.286,73.234-23.788
		c11.227-11.226,18.711-28.333,18.711-47.577c0-36.886-25.928-65.484-61.742-65.484c-33.679,0-56.933,29.936-56.933,64.416
		c0,30.47,16.571,47.843,34.746,58.535c-57.198,1.336-97.024-23.254-97.024-61.208c0-17.641,6.95-31.807,19.78-46.24L216.029,107.07
		z M212.019,335.862l10.959-3.741l-12.295-36.084h174.002v-13.632H196.25v10.691L212.019,335.862z M291.402,374.38
		c43.834,0,83.928,24.056,83.928,62.812c0,38.756-40.627,63.347-84.461,63.347c-43.835,0-83.928-24.056-83.928-62.812
		C206.941,398.971,247.568,374.38,291.402,374.38 M290.869,359.947c-51.853,0-96.49,29.668-96.49,77.245
		c0,47.575,45.17,77.778,97.023,77.778c51.854,0,96.491-29.669,96.491-77.245S342.723,359.947,290.869,359.947 M207.208,608.253
		c0-22.452,15.77-42.229,40.093-42.229c19.778,0,35.815,10.689,63.881,41.428l63.078,69.761h10.426V549.45H371.32v105.845
		l-51.854-57.199c-29.935-32.876-47.041-46.773-72.968-46.773c-29.401,0-51.585,23.788-51.585,55.595
		c0,32.876,15.235,50.249,40.093,66.555l6.949-10.425C219.503,647.544,207.208,632.041,207.208,608.253"/>
	<path fill="#FFFFFF" d="M329.627,414.197h-1.025l-2.979,8.666l-2.979-8.704h-0.756l-2.979,8.704l-2.979-8.666h-1.063l3.616,9.941
		h0.812l2.96-8.453l2.938,8.453h0.812L329.627,414.197z M305.234,418.665c0.174-2.187,1.683-3.829,3.637-3.829
		c2.264,0,3.404,1.837,3.539,3.829H305.234z M305.234,419.517h8.182c0.02-0.154,0.02-0.213,0.02-0.348v-0.039
		c0-2.921-1.76-5.164-4.525-5.164c-2.668,0-4.68,2.282-4.68,5.146v0.039c0,3.074,2.244,5.146,4.834,5.146
		c1.896,0,3.076-0.773,4.082-1.856l-0.658-0.58c-0.812,0.869-1.856,1.547-3.385,1.547
		C307.169,423.404,305.408,421.974,305.234,419.517 M301.095,424.062v-13.54h-0.967v11.779l-9.343-11.779h-0.948v13.54h0.967
		v-12.031l9.536,12.031H301.095z M279.335,419.149c0,2.514-1.973,4.234-4.023,4.234c-2.07,0-3.869-1.663-3.869-4.255v-0.039
		c0-2.648,1.722-4.216,3.869-4.216c2.05,0,4.023,1.702,4.023,4.235V419.149z M280.225,424.062v-14.12h-0.948v6.383
		c-0.812-1.238-2.089-2.359-4.062-2.359c-2.379,0-4.797,1.953-4.797,5.164v0.039c0,3.21,2.418,5.126,4.797,5.126
		c1.954,0,3.211-1.142,4.062-2.438v2.205H280.225z M267.652,424.062v-6.035c0-2.36-1.451-4.062-3.946-4.062
		c-1.799,0-2.902,0.909-3.56,2.069v-1.838h-0.948v9.864h0.948v-5.707c0-2.05,1.49-3.52,3.424-3.52c1.992,0,3.133,1.335,3.133,3.365
		v5.86h0.949V424.062z M254.886,420.367c0,1.8-1.722,3.037-3.733,3.037c-1.509,0-2.863-0.831-2.863-2.264v-0.039
		c0-1.373,1.161-2.302,3.25-2.302c1.412,0,2.515,0.232,3.347,0.444v1.123H254.886z M255.795,424.062v-6.151
		c0-2.554-1.586-3.868-4.12-3.868c-1.354,0-2.418,0.348-3.501,0.851l0.348,0.832c0.909-0.464,1.896-0.793,3.095-0.793
		c2.031,0,3.249,1.025,3.249,3.019v0.425c-0.948-0.251-1.895-0.425-3.269-0.425c-2.553,0-4.313,1.16-4.313,3.211v0.038
		c0,2.051,1.973,3.096,3.811,3.096c1.876,0,3.095-0.929,3.771-1.877v1.646h0.929V424.062z M246.161,415.087v-1.044
		c-1.953-0.077-3.598,1.199-4.371,2.959v-2.805h-0.948v9.865h0.948v-4.044c0-3.211,1.992-4.933,4.275-4.933L246.161,415.087
		L246.161,415.087z M236.799,420.367c0,1.703-1.47,2.767-3.791,2.767h-4.913v-5.436h4.584c2.669,0,4.12,0.967,4.12,2.631V420.367z
		 M236.044,413.985c0,1.798-1.45,2.783-3.481,2.783h-4.468v-5.317h4.565c2.167,0,3.385,1.006,3.385,2.495L236.044,413.985
		L236.044,413.985z M237.824,420.367v-0.038c0-1.876-1.431-2.805-3.056-3.23c1.103-0.444,2.302-1.373,2.302-3.211v-0.038
		c0-2.03-1.76-3.326-4.391-3.326h-5.59v13.54h5.88C235.89,424.062,237.824,422.631,237.824,420.367"/>
	<path fill="#FFFFFF" d="M337.38,441.81v-0.037c0-1.741-1.664-2.321-3.249-2.768c-1.413-0.406-2.747-0.812-2.747-1.915v-0.038
		c0-0.986,0.89-1.722,2.243-1.722c1.045,0,2.128,0.387,3.037,0.986l0.503-0.793c-0.987-0.657-2.321-1.083-3.501-1.083
		c-1.914,0-3.25,1.141-3.25,2.728v0.038c0,1.76,1.779,2.244,3.385,2.708c1.374,0.387,2.611,0.812,2.611,1.974v0.038
		c0,1.143-1.044,1.876-2.379,1.876c-1.258,0-2.457-0.464-3.539-1.296l-0.561,0.754c1.043,0.853,2.609,1.433,4.041,1.433
		C335.871,444.691,337.38,443.569,337.38,441.81 M327.939,444.324v-0.891c-0.561,0.251-0.967,0.35-1.449,0.35
		c-1.143,0-1.973-0.504-1.973-1.915v-6.364h3.461v-0.87h-3.461v-3.153h-0.949v3.153h-1.432v0.87h1.432v6.46
		c0,1.877,1.238,2.709,2.767,2.709C326.954,444.673,327.438,444.556,327.939,444.324 M319.643,444.498v-6.034
		c0-2.36-1.451-4.062-3.944-4.062c-1.8,0-2.901,0.908-3.56,2.069v-1.838h-0.947v9.864h0.947v-5.706c0-2.05,1.488-3.521,3.424-3.521
		c1.992,0,3.133,1.335,3.133,3.365v5.86L319.643,444.498L319.643,444.498z M300.223,439.102c0.174-2.186,1.684-3.829,3.637-3.829
		c2.263,0,3.404,1.838,3.541,3.829H300.223z M300.223,439.953h8.181c0.021-0.155,0.021-0.213,0.021-0.35v-0.038
		c0-2.921-1.761-5.164-4.526-5.164c-2.669,0-4.681,2.281-4.681,5.145v0.039c0,3.076,2.244,5.146,4.835,5.146
		c1.896,0,3.076-0.773,4.082-1.856l-0.657-0.581c-0.812,0.871-1.856,1.548-3.386,1.548
		C302.158,443.841,300.397,442.409,300.223,439.953 M296.413,444.498v-5.977c0-2.477-1.45-4.12-3.792-4.12
		c-1.856,0-2.92,1.024-3.559,2.128c-0.542-1.143-1.605-2.128-3.327-2.128c-1.76,0-2.65,0.967-3.288,1.991v-1.76H281.5v9.864h0.948
		v-5.688c0-1.991,1.393-3.54,3.153-3.54c1.76,0,2.882,1.259,2.882,3.309v5.919h0.948v-5.744c0-2.206,1.451-3.481,3.114-3.481
		c1.818,0,2.92,1.237,2.92,3.365v5.86L296.413,444.498L296.413,444.498z M278.656,444.324v-0.891
		c-0.561,0.251-0.967,0.35-1.451,0.35c-1.141,0-1.973-0.504-1.973-1.915v-6.364h3.462v-0.87h-3.462v-3.153h-0.948v3.153h-1.432v0.87
		h1.432v6.46c0,1.877,1.238,2.709,2.766,2.709C277.669,444.673,278.153,444.556,278.656,444.324 M271.344,435.523v-1.046
		c-1.954-0.076-3.598,1.199-4.372,2.96v-2.805h-0.947v9.864h0.947v-4.042c0-3.212,1.993-4.933,4.275-4.933L271.344,435.523
		L271.344,435.523z M261.712,440.804c0,1.799-1.722,3.037-3.733,3.037c-1.509,0-2.863-0.832-2.863-2.264v-0.038
		c0-1.373,1.16-2.302,3.249-2.302c1.413,0,2.515,0.231,3.347,0.443V440.804L261.712,440.804z M262.621,444.498v-6.15
		c0-2.554-1.586-3.869-4.12-3.869c-1.354,0-2.418,0.35-3.501,0.853l0.348,0.832c0.909-0.465,1.896-0.794,3.095-0.794
		c2.031,0,3.25,1.024,3.25,3.018v0.426c-0.948-0.252-1.896-0.426-3.269-0.426c-2.553,0-4.313,1.16-4.313,3.211v0.039
		c0,2.05,1.973,3.096,3.811,3.096c1.876,0,3.095-0.93,3.771-1.876v1.644h0.928V444.498z M250.938,439.604
		c0,2.65-1.721,4.218-3.868,4.218c-2.051,0-4.023-1.702-4.023-4.236v-0.039c0-2.514,1.973-4.235,4.023-4.235
		c2.069,0,3.868,1.663,3.868,4.256V439.604z M251.964,439.565v-0.038c0-3.211-2.418-5.126-4.797-5.126
		c-1.953,0-3.211,1.141-4.062,2.438v-2.205h-0.948v12.959h0.948v-5.222c0.812,1.237,2.089,2.359,4.062,2.359
		C249.546,444.73,251.964,442.777,251.964,439.565 M236.257,439.798h-7.138l3.579-7.834L236.257,439.798z M239.507,444.498
		l-6.306-13.636h-0.967l-6.306,13.636h1.044l1.722-3.791h7.989l1.721,3.791H239.507z"/>
	<path fill="#FFFFFF" d="M346.113,460.366c0,1.411-1.025,2.476-2.709,2.476c-1.701,0-2.805-1.045-2.805-2.457
		c0-1.314,1.063-2.397,2.748-2.397C345.029,457.986,346.113,458.992,346.113,460.366 M347.988,452.396
		c-1.18-0.948-2.379-1.51-4.139-1.51c-3.83,0-5.804,3.229-5.804,7.39c0,2.746,0.618,4.157,1.646,5.202
		c0.908,0.892,2.107,1.412,3.771,1.412c2.845,0,5.029-1.896,5.029-4.623c0-2.727-2.108-4.273-4.738-4.273
		c-1.587,0-2.517,0.657-3.231,1.354c0.117-2.477,1.238-4.294,3.25-4.294c1.181,0,1.994,0.444,2.939,1.18L347.988,452.396z
		 M329.691,452.184l0.502,1.935l2.438-0.677v11.22h2.359v-13.638h-1.663L329.691,452.184z M326.111,457.909
		c0,2.688-1.316,4.835-3.426,4.835c-2.106,0-3.461-2.166-3.461-4.874s1.313-4.836,3.424-4.836
		C324.756,453.034,326.111,455.221,326.111,457.909 M328.566,457.87c0-3.888-2.32-6.982-5.881-6.982
		c-3.559,0-5.918,3.134-5.918,7.021s2.321,6.981,5.881,6.981C326.207,464.891,328.566,461.758,328.566,457.87 M310.152,453.055
		c1.238,0,2.186,0.772,2.186,2.107c0,1.219-0.676,2.089-2.533,3.656l-4.662,3.965v1.877h9.787v-2.09h-6.438l2.784-2.321
		c2.398-1.953,3.521-3.114,3.521-5.261c0-2.418-1.76-4.062-4.469-4.062c-2.418,0-3.694,1.024-4.99,2.843l1.683,1.315
		C308.062,453.73,308.914,453.055,310.152,453.055 M295.704,459.263c0,2.244-2.03,3.753-4.081,3.753
		c-2.031,0-3.811-1.548-3.811-3.771v-0.039c0-2.302,1.741-3.733,3.811-3.733c2.051,0,4.081,1.472,4.081,3.753V459.263z
		 M296.594,463.132v-8.337h-0.948v1.973c-0.812-1.159-2.147-2.205-4.12-2.205c-2.379,0-4.739,1.839-4.739,4.683v0.038
		c0,2.824,2.36,4.643,4.739,4.643c1.954,0,3.269-1.063,4.12-2.282v1.432c0,2.534-1.606,3.83-3.869,3.83
		c-1.451,0-2.805-0.483-3.984-1.394l-0.561,0.773c1.354,1.006,2.882,1.509,4.526,1.509
		C294.563,467.793,296.594,466.13,296.594,463.132 M284.021,464.66v-6.035c0-2.36-1.45-4.062-3.946-4.062
		c-1.799,0-2.901,0.909-3.559,2.07v-1.838h-0.948v9.865h0.948v-5.707c0-2.05,1.489-3.521,3.423-3.521
		c1.992,0,3.134,1.335,3.134,3.366v5.861L284.021,464.66L284.021,464.66z M271.835,454.795h-0.948v9.865h0.948V454.795z
		 M271.952,450.927h-1.18v1.296h1.18V450.927z M267.271,464.66v-5.979c0-2.476-1.451-4.119-3.791-4.119
		c-1.857,0-2.921,1.024-3.559,2.128c-0.542-1.143-1.605-2.128-3.327-2.128c-1.76,0-2.65,0.968-3.288,1.991v-1.76h-0.948v9.865h0.948
		v-5.688c0-1.992,1.393-3.54,3.153-3.54c1.76,0,2.882,1.259,2.882,3.309v5.92h0.947v-5.745c0-2.206,1.451-3.482,3.114-3.482
		c1.818,0,2.921,1.238,2.921,3.366v5.861L267.271,464.66L267.271,464.66z M248.411,459.766c0,2.321-1.683,4.236-4.023,4.236
		c-2.283,0-4.062-1.896-4.062-4.275v-0.037c0-2.321,1.683-4.236,4.023-4.236c2.282,0,4.062,1.896,4.062,4.273V459.766z
		 M249.437,459.727v-0.037c0-2.767-2.127-5.127-5.048-5.127c-2.94,0-5.087,2.398-5.087,5.164v0.039c0,2.768,2.128,5.126,5.049,5.126
		C247.29,464.892,249.437,462.493,249.437,459.727 M237.619,462.532l-0.677-0.658c-1.374,1.354-2.708,2.108-4.662,2.108
		c-3.23,0-5.726-2.669-5.726-6.094v-0.039c0-3.403,2.457-6.054,5.706-6.054c2.031,0,3.385,0.852,4.565,1.992l0.716-0.734
		c-1.393-1.276-2.844-2.167-5.261-2.167c-3.907,0-6.77,3.172-6.77,7.002v0.039c0,3.889,2.863,6.963,6.731,6.963
		C234.64,464.892,236.188,463.944,237.619,462.532"/>
</g>
</svg>
