<?xml version="1.0" encoding="utf-8"?>
<!-- Generator: Adobe Illustrator 18.1.1, SVG Export Plug-In . SVG Version: 6.00 Build 0)  -->
<svg version="1.1" id="Layer_1" xmlns="http://www.w3.org/2000/svg" xmlns:xlink="http://www.w3.org/1999/xlink" x="0px" y="0px"
	 viewBox="0 0 279.6 833.7" enable-background="new 0 0 279.6 833.7" xml:space="preserve">
<g>
	<path fill="#FFFFFF" d="M68.7,813.2l-10,15.1c-35.9-23.6-57.9-48.7-57.9-96.1c0-46,32-80.3,74.5-80.3c37.5,0,62.2,20.1,105.4,67.6
		l74.9,82.6V649.1h19.3v184.6h-15.1l-91.1-100.8C128.2,688.5,105,673,76.5,673c-35.1,0-57.9,28.6-57.9,61
		C18.5,768.4,36.3,790.8,68.7,813.2z"/>
	<path fill="#FFFFFF" d="M279.6,487.7c0,68.7-64.5,111.6-139.4,111.6S0,555.7,0,486.9c0-68.7,64.5-111.6,139.4-111.6
		S279.6,419,279.6,487.7z M18.1,487.7c0,56,57.9,90.7,121.2,90.7s122-35.5,122-91.5c0-56-57.9-90.7-121.2-90.7
		S18.1,431.7,18.1,487.7z"/>
	<path fill="#FFFFFF" d="M2.7,278.4V263h272.2v19.7H23.6l17.8,52.1l-15.8,5.4L2.7,278.4z"/>
	<path fill="#FFFFFF" d="M46.7,22.4C28.2,43.2,18.1,63.7,18.1,89.2c0,54.8,57.5,90.4,140.2,88.4c-26.3-15.4-50.2-40.5-50.2-84.6
		c0-49.8,33.6-93.1,82.2-93.1c51.7,0,89.2,41.3,89.2,94.6c0,27.8-10.8,52.5-27,68.7c-22.4,22.4-49.4,34.4-105.8,34.4
		C64.9,197.7,0,154.8,0,87.7c0-30.9,12-54.4,31.3-78L46.7,22.4z M125.9,94.2c0,44.4,33.6,75.3,67.2,75.3c39,0,68.3-32.8,68.3-76.5
		c0-43.6-31.7-72.2-70.3-72.2C153.7,20.9,125.9,51.4,125.9,94.2z"/>
</g>
<g>
	<path fill="#FFFFFF" d="M59.6,483.1h-9.8v-22.6h9.3c4.4,0,7.3,2.2,7.3,5.6v0.1c0,3.1-2,4.6-3.8,5.4c2.7,0.7,5.1,2.3,5.1,5.4v0.1
		C67.7,480.7,64.5,483.1,59.6,483.1z M64.7,466.1c0-2.5-2-4.2-5.7-4.2h-7.6v8.9h7.5C62.3,470.9,64.7,469.2,64.7,466.1L64.7,466.1z
		 M66,476.8c0-2.8-2.4-4.4-6.9-4.4h-7.7v9.1h8.2C63.5,481.5,66,479.7,66,476.8L66,476.8z"/>
	<path fill="#FFFFFF" d="M81.5,468c-3.8,0-7.1,2.9-7.1,8.2v6.8h-1.6v-16.5h1.6v4.7c1.3-2.9,4-5.1,7.3-4.9v1.7H81.5z"/>
	<path fill="#FFFFFF" d="M96.2,483.1v-2.7c-1.1,1.6-3.2,3.1-6.3,3.1c-3.1,0-6.4-1.7-6.4-5.2v-0.1c0-3.4,2.9-5.4,7.2-5.4
		c2.3,0,3.9,0.3,5.5,0.7v-0.7c0-3.3-2-5-5.4-5c-2,0-3.7,0.5-5.2,1.3l-0.6-1.4c1.8-0.8,3.6-1.4,5.9-1.4c4.2,0,6.9,2.2,6.9,6.5v10.3
		H96.2z M96.3,475c-1.4-0.4-3.2-0.7-5.6-0.7c-3.5,0-5.4,1.6-5.4,3.8v0.1c0,2.4,2.3,3.8,4.8,3.8c3.4,0,6.2-2.1,6.2-5.1V475z"/>
	<path fill="#FFFFFF" d="M116,483.1v-9.8c0-3.4-1.9-5.6-5.2-5.6c-3.2,0-5.7,2.5-5.7,5.9v9.5h-1.6v-16.5h1.6v3.1
		c1.1-1.9,2.9-3.5,6-3.5c4.2,0,6.6,2.8,6.6,6.8v10.1H116z"/>
	<path fill="#FFFFFF" d="M137,483.1v-3.7c-1.4,2.2-3.5,4.1-6.8,4.1c-4,0-8-3.2-8-8.6v-0.1c0-5.4,4-8.6,8-8.6c3.3,0,5.4,1.9,6.8,3.9
		v-10.7h1.6v23.6H137z M137.1,474.8c0-4.2-3.3-7.1-6.7-7.1c-3.6,0-6.5,2.6-6.5,7v0.1c0,4.3,3,7.1,6.5,7.1
		C133.8,481.9,137.1,479,137.1,474.8L137.1,474.8z"/>
	<path fill="#FFFFFF" d="M172.2,483.1l-15.9-20.1v20.1h-1.6v-22.6h1.6l15.6,19.7v-19.7h1.6v22.6H172.2z"/>
	<path fill="#FFFFFF" d="M186.9,482c2.6,0,4.3-1.1,5.7-2.6l1.1,1c-1.7,1.8-3.7,3.1-6.8,3.1c-4.3,0-8.1-3.5-8.1-8.6v-0.1
		c0-4.8,3.4-8.6,7.8-8.6c4.6,0,7.6,3.8,7.6,8.6v0.1c0,0.2,0,0.3,0,0.6h-13.7C180.7,479.6,183.7,482,186.9,482z M192.4,474
		c-0.2-3.3-2.1-6.4-5.9-6.4c-3.3,0-5.8,2.7-6.1,6.4H192.4z"/>
	<path fill="#FFFFFF" d="M215.1,483.2h-1.4l-4.9-14.1l-4.9,14.1h-1.4l-6-16.6h1.8l5,14.5l5-14.6h1.3l5,14.6l5-14.5h1.7L215.1,483.2z
		"/>
</g>
<g>
	<path fill="#FFFFFF" d="M68.7,514.5l-2.9-6.3H52.5l-2.9,6.3h-1.7l10.5-22.8H60l10.5,22.8H68.7z M59.1,493.6l-6,13.1h11.9
		L59.1,493.6z"/>
	<path fill="#FFFFFF" d="M83.3,514.9c-3.3,0-5.4-1.9-6.8-3.9v8.7H75v-21.7h1.6v3.7c1.4-2.2,3.5-4.1,6.8-4.1c4,0,8,3.2,8,8.6v0.1
		C91.3,511.7,87.3,514.9,83.3,514.9z M89.6,506.3c0-4.3-3-7.1-6.5-7.1c-3.4,0-6.7,2.9-6.7,7.1v0.1c0,4.2,3.3,7.1,6.7,7.1
		C86.8,513.4,89.6,510.8,89.6,506.3L89.6,506.3z"/>
	<path fill="#FFFFFF" d="M107.6,514.5v-2.7c-1.1,1.6-3.2,3.1-6.3,3.1c-3.1,0-6.4-1.7-6.4-5.2v-0.1c0-3.4,2.9-5.4,7.2-5.4
		c2.3,0,3.9,0.3,5.5,0.7v-0.7c0-3.3-2-5-5.4-5c-2,0-3.7,0.5-5.2,1.3l-0.6-1.4c1.8-0.8,3.6-1.4,5.9-1.4c4.2,0,6.9,2.2,6.9,6.5v10.3
		H107.6z M107.6,506.5c-1.4-0.4-3.2-0.7-5.6-0.7c-3.5,0-5.4,1.6-5.4,3.8v0.1c0,2.4,2.3,3.8,4.8,3.8c3.4,0,6.2-2.1,6.2-5.1V506.5z"/>
	<path fill="#FFFFFF" d="M123.6,499.5c-3.8,0-7.1,2.9-7.1,8.2v6.8h-1.6v-16.5h1.6v4.7c1.3-2.9,4-5.1,7.3-4.9v1.7H123.6z"/>
	<path fill="#FFFFFF" d="M133.3,514.8c-2.6,0-4.6-1.4-4.6-4.5v-10.8h-2.4v-1.5h2.4v-5.3h1.6v5.3h5.8v1.5h-5.8v10.6
		c0,2.4,1.4,3.2,3.3,3.2c0.8,0,1.5-0.2,2.4-0.6v1.5C135.1,514.6,134.3,514.8,133.3,514.8z"/>
	<path fill="#FFFFFF" d="M164.1,514.5v-9.8c0-3.6-1.8-5.6-4.9-5.6c-2.8,0-5.2,2.1-5.2,5.8v9.6h-1.6v-9.9c0-3.4-1.9-5.5-4.8-5.5
		s-5.3,2.6-5.3,5.9v9.5h-1.6v-16.5h1.6v2.9c1.1-1.7,2.6-3.3,5.5-3.3c2.9,0,4.7,1.6,5.6,3.6c1.1-1.8,2.8-3.6,6-3.6
		c3.9,0,6.3,2.7,6.3,6.9v10H164.1z"/>
	<path fill="#FFFFFF" d="M178.5,513.4c2.6,0,4.3-1.1,5.7-2.6l1.1,1c-1.7,1.8-3.7,3.1-6.8,3.1c-4.3,0-8.1-3.5-8.1-8.6v-0.1
		c0-4.8,3.4-8.6,7.8-8.6c4.6,0,7.6,3.8,7.6,8.6v0.1c0,0.2,0,0.3,0,0.6H172C172.3,511.1,175.2,513.4,178.5,513.4z M184,505.5
		c-0.2-3.3-2.1-6.4-5.9-6.4c-3.3,0-5.8,2.7-6.1,6.4H184z"/>
	<path fill="#FFFFFF" d="M202.9,514.5v-9.8c0-3.4-1.9-5.6-5.2-5.6c-3.2,0-5.7,2.5-5.7,5.9v9.5h-1.6v-16.5h1.6v3.1
		c1.1-1.9,2.9-3.5,6-3.5c4.2,0,6.6,2.8,6.6,6.8v10.1H202.9z"/>
	<path fill="#FFFFFF" d="M215.7,514.8c-2.6,0-4.6-1.4-4.6-4.5v-10.8h-2.4v-1.5h2.4v-5.3h1.6v5.3h5.8v1.5h-5.8v10.6
		c0,2.4,1.4,3.2,3.3,3.2c0.8,0,1.5-0.2,2.4-0.6v1.5C217.5,514.6,216.7,514.8,215.7,514.8z"/>
	<path fill="#FFFFFF" d="M228.4,514.9c-2.4,0-5-1-6.8-2.4l0.9-1.3c1.8,1.4,3.8,2.2,5.9,2.2c2.2,0,4-1.2,4-3.1v-0.1
		c0-1.9-2.1-2.7-4.4-3.3c-2.7-0.8-5.7-1.6-5.7-4.5v-0.1c0-2.7,2.2-4.6,5.4-4.6c2,0,4.2,0.7,5.9,1.8l-0.8,1.3c-1.5-1-3.3-1.6-5.1-1.6
		c-2.3,0-3.8,1.2-3.8,2.9v0.1c0,1.8,2.2,2.5,4.6,3.2c2.7,0.7,5.4,1.7,5.4,4.6v0.1C234.1,513,231.6,514.9,228.4,514.9z"/>
</g>
</svg>
