<?xml version="1.0" encoding="utf-8"?>
<!-- Generator: Adobe Illustrator 15.0.2, SVG Export Plug-In . SVG Version: 6.00 Build 0)  -->
<!DOCTYPE svg PUBLIC "-//W3C//DTD SVG 1.1//EN" "http://www.w3.org/Graphics/SVG/1.1/DTD/svg11.dtd">
<svg version="1.1" id="Layer_1" xmlns="http://www.w3.org/2000/svg" xmlns:xlink="http://www.w3.org/1999/xlink" x="0px" y="0px"
	 width="201.223px" height="600.072px" viewBox="299.388 -0.072 201.223 600.072"
	 enable-background="new 299.388 -0.072 201.223 600.072" xml:space="preserve">
<g>
	<path fill="#FFFFFF" d="M349.264,585.246l-7.34,10.867c-26.354-16.984-42.503-35.048-42.503-69.161
		c0-33.105,23.491-57.791,54.688-57.791c27.527,0,45.658,14.466,77.369,48.651l54.98,59.445V467.146h14.168V600h-11.084
		l-66.873-72.544c-29.729-31.954-46.758-43.109-67.68-43.109c-25.765,0-42.502,20.583-42.502,43.901
		C312.414,553.005,325.48,569.126,349.264,585.246z"/>
	<path fill="#FFFFFF" d="M500.674,350.989c0,49.442-46.437,80.317-100.361,80.317s-100.938-31.379-100.938-80.893
		c0-49.442,46.437-80.317,100.361-80.317S500.674,301.547,500.674,350.989z M312.406,350.989c0,40.303,41.686,65.275,87.259,65.275
		c45.573,0,87.834-25.549,87.834-65.851c0-40.303-41.686-65.275-87.259-65.275C354.667,285.139,312.406,310.688,312.406,350.989z"/>
	<path fill="#FFFFFF" d="M299.535,200.36v-11.083H500.65v14.178H314.977l13.151,37.496l-11.673,3.886L299.535,200.36z"/>
	<path fill="#FFFFFF" d="M332.997,16.121c-13.319,14.969-20.591,29.723-20.591,48.075c0,39.438,41.397,65.059,100.938,63.62
		c-18.935-11.083-36.142-29.147-36.142-60.885c0-35.84,24.189-67.002,59.181-67.002c37.221,0,64.22,29.723,64.22,68.082
		c0,20.007-7.775,37.783-19.439,49.442c-16.127,16.121-35.566,24.757-76.171,24.757c-58.893,0.072-105.617-30.802-105.617-79.093
		c0-22.238,8.639-39.151,22.535-56.135L332.997,16.121z M390.017,67.794c0,31.954,24.191,54.192,48.381,54.192
		c28.078,0,49.172-23.605,49.172-55.056c0-31.378-22.822-51.961-50.612-51.961C410.032,15.042,390.017,36.992,390.017,67.794z"/>
</g>
<g>
	<path fill="#FFFFFF" d="M342.281,347.679h-7.053v-16.265h6.693c3.167,0,5.254,1.583,5.254,4.03v0.072
		c0,2.23-1.439,3.311-2.735,3.886c1.943,0.504,3.67,1.655,3.67,3.887v0.072C348.111,345.952,345.808,347.679,342.281,347.679z
		 M345.952,335.444c0-1.799-1.439-3.022-4.102-3.022h-5.47v6.405h5.398C344.225,338.898,345.952,337.676,345.952,335.444
		L345.952,335.444z M346.887,343.145c0-2.015-1.727-3.166-4.966-3.166h-5.542v6.549h5.901
		C345.088,346.527,346.887,345.232,346.887,343.145L346.887,343.145z"/>
	<path fill="#FFFFFF" d="M358.042,336.812c-2.735,0-5.11,2.087-5.11,5.901v4.895h-1.151v-11.875h1.151v3.383
		c0.936-2.088,2.879-3.671,5.254-3.527v1.224H358.042L358.042,336.812z"/>
	<path fill="#FFFFFF" d="M368.622,347.679v-1.942c-0.792,1.151-2.303,2.23-4.534,2.23s-4.606-1.224-4.606-3.742v-0.072
		c0-2.446,2.087-3.886,5.182-3.886c1.655,0,2.807,0.216,3.958,0.504v-0.504c0-2.375-1.439-3.599-3.886-3.599
		c-1.439,0-2.663,0.359-3.742,0.936l-0.432-1.008c1.295-0.575,2.591-1.008,4.246-1.008c3.022,0,4.966,1.584,4.966,4.679v7.412
		H368.622z M368.694,341.85c-1.008-0.288-2.303-0.504-4.03-0.504c-2.519,0-3.886,1.151-3.886,2.735v0.071
		c0,1.728,1.655,2.735,3.455,2.735c2.447,0,4.462-1.512,4.462-3.671V341.85z"/>
	<path fill="#FFFFFF" d="M382.872,347.679v-7.053c0-2.446-1.368-4.03-3.742-4.03c-2.303,0-4.103,1.8-4.103,4.246v6.837h-1.151
		v-11.874h1.151v2.23c0.792-1.367,2.087-2.519,4.318-2.519c3.022,0,4.75,2.015,4.75,4.894v7.269H382.872z"/>
	<path fill="#FFFFFF" d="M397.985,347.679v-2.662c-1.008,1.583-2.52,2.95-4.895,2.95c-2.878,0-5.757-2.303-5.757-6.189v-0.071
		c0-3.887,2.879-6.189,5.757-6.189c2.375,0,3.887,1.367,4.895,2.807v-7.701h1.151v16.985h-1.151V347.679z M398.057,341.706
		c0-3.023-2.375-5.11-4.822-5.11c-2.591,0-4.678,1.871-4.678,5.038v0.072c0,3.094,2.159,5.109,4.678,5.109
		C395.682,346.815,398.057,344.729,398.057,341.706L398.057,341.706z"/>
	<path fill="#FFFFFF" d="M423.317,347.679l-11.442-14.466v14.466h-1.151v-16.265h1.151l11.227,14.178v-14.178h1.151v16.265H423.317z
		"/>
	<path fill="#FFFFFF" d="M433.897,346.888c1.871,0,3.095-0.792,4.102-1.871l0.792,0.72c-1.224,1.295-2.663,2.23-4.894,2.23
		c-3.095,0-5.83-2.519-5.83-6.189v-0.071c0-3.455,2.447-6.189,5.614-6.189c3.311,0,5.469,2.734,5.469,6.189v0.071
		c0,0.145,0,0.216,0,0.432h-9.859C429.436,345.16,431.594,346.888,433.897,346.888z M437.855,341.13
		c-0.145-2.375-1.512-4.606-4.246-4.606c-2.375,0-4.174,1.943-4.391,4.606H437.855z"/>
	<path fill="#FFFFFF" d="M454.192,347.751h-1.008l-3.526-10.147l-3.526,10.147h-1.008l-4.318-11.946h1.296l3.599,10.435
		l3.599-10.507h0.936l3.598,10.507l3.599-10.435h1.224L454.192,347.751z"/>
</g>
<g>
	<path fill="#FFFFFF" d="M348.831,370.277l-2.087-4.534h-9.572l-2.087,4.534h-1.223l7.557-16.409h1.151l7.557,16.409H348.831z
		 M341.921,355.235l-4.318,9.429h8.564L341.921,355.235z"/>
	<path fill="#FFFFFF" d="M359.338,370.565c-2.375,0-3.886-1.368-4.894-2.808v6.262h-1.079v-15.617h1.151v2.663
		c1.007-1.584,2.519-2.951,4.894-2.951c2.879,0,5.758,2.303,5.758,6.189v0.072C365.095,368.262,362.217,370.565,359.338,370.565z
		 M363.872,364.376c0-3.095-2.159-5.11-4.678-5.11c-2.447,0-4.822,2.087-4.822,5.11v0.071c0,3.023,2.375,5.11,4.822,5.11
		C361.857,369.485,363.872,367.614,363.872,364.376L363.872,364.376z"/>
	<path fill="#FFFFFF" d="M376.826,370.277v-1.943c-0.792,1.151-2.303,2.23-4.534,2.23c-2.231,0-4.606-1.223-4.606-3.742v-0.071
		c0-2.447,2.087-3.887,5.182-3.887c1.655,0,2.807,0.216,3.958,0.504v-0.504c0-2.375-1.439-3.599-3.886-3.599
		c-1.439,0-2.663,0.36-3.742,0.936l-0.432-1.007c1.295-0.576,2.591-1.008,4.246-1.008c3.023,0,4.966,1.583,4.966,4.678v7.413
		H376.826L376.826,370.277z M376.826,364.52c-1.007-0.288-2.303-0.504-4.03-0.504c-2.519,0-3.886,1.151-3.886,2.735v0.071
		c0,1.728,1.655,2.735,3.455,2.735c2.447,0,4.462-1.512,4.462-3.671V364.52z"/>
	<path fill="#FFFFFF" d="M388.341,359.481c-2.735,0-5.11,2.088-5.11,5.901v4.895h-1.151v-11.875h1.151v3.383
		c0.936-2.088,2.879-3.671,5.253-3.526v1.223H388.341z"/>
	<path fill="#FFFFFF" d="M395.322,370.493c-1.872,0-3.311-1.008-3.311-3.239v-7.772h-1.728v-1.079h1.728v-3.814h1.151v3.814h4.174
		v1.079h-4.174v7.629c0,1.728,1.007,2.303,2.375,2.303c0.575,0,1.079-0.144,1.728-0.432v1.08
		C396.617,370.349,396.042,370.493,395.322,370.493z"/>
	<path fill="#FFFFFF" d="M417.488,370.277v-7.053c0-2.591-1.295-4.03-3.526-4.03c-2.016,0-3.742,1.511-3.742,4.174v6.909h-1.151
		v-7.125c0-2.447-1.368-3.958-3.455-3.958s-3.814,1.871-3.814,4.246v6.837h-1.151v-11.875h1.151v2.087
		c0.792-1.224,1.871-2.375,3.959-2.375c2.087,0,3.382,1.151,4.03,2.591c0.791-1.295,2.015-2.591,4.317-2.591
		c2.807,0,4.534,1.943,4.534,4.966v7.197H417.488z"/>
	<path fill="#FFFFFF" d="M427.852,369.485c1.871,0,3.095-0.792,4.103-1.871l0.792,0.72c-1.224,1.295-2.663,2.231-4.895,2.231
		c-3.095,0-5.829-2.52-5.829-6.189v-0.072c0-3.454,2.446-6.189,5.613-6.189c3.311,0,5.47,2.735,5.47,6.189v0.072
		c0,0.144,0,0.216,0,0.432h-9.932C423.39,367.83,425.477,369.485,427.852,369.485z M431.81,363.8
		c-0.144-2.375-1.511-4.605-4.246-4.605c-2.375,0-4.174,1.942-4.39,4.605H431.81z"/>
	<path fill="#FFFFFF" d="M445.412,370.277v-7.053c0-2.447-1.367-4.03-3.742-4.03c-2.303,0-4.103,1.799-4.103,4.246v6.837h-1.151
		v-11.875h1.151v2.231c0.792-1.368,2.087-2.52,4.318-2.52c3.022,0,4.75,2.016,4.75,4.894v7.27H445.412z"/>
	<path fill="#FFFFFF" d="M454.624,370.493c-1.871,0-3.311-1.008-3.311-3.239v-7.772h-1.728v-1.079h1.728v-3.814h1.151v3.814h4.174
		v1.079h-4.174v7.629c0,1.728,1.008,2.303,2.375,2.303c0.576,0,1.079-0.144,1.728-0.432v1.08
		C455.919,370.349,455.344,370.493,454.624,370.493z"/>
	<path fill="#FFFFFF" d="M463.764,370.565c-1.727,0-3.598-0.72-4.894-1.728l0.647-0.936c1.296,1.008,2.735,1.583,4.246,1.583
		c1.584,0,2.879-0.863,2.879-2.23v-0.072c0-1.367-1.512-1.943-3.166-2.375c-1.943-0.576-4.103-1.151-4.103-3.238v-0.072
		c0-1.943,1.583-3.311,3.886-3.311c1.439,0,3.023,0.504,4.246,1.295l-0.575,0.936c-1.08-0.72-2.375-1.151-3.671-1.151
		c-1.655,0-2.734,0.864-2.734,2.087v0.072c0,1.296,1.583,1.8,3.311,2.303c1.943,0.504,3.887,1.224,3.887,3.311v0.072
		C467.866,369.197,466.067,370.565,463.764,370.565z"/>
</g>
</svg>
