<?xml version="1.0" encoding="utf-8"?>
<!-- Generator: Adobe Illustrator 18.1.1, SVG Export Plug-In . SVG Version: 6.00 Build 0)  -->
<svg version="1.1" id="Layer_1" xmlns="http://www.w3.org/2000/svg" xmlns:xlink="http://www.w3.org/1999/xlink" x="0px" y="0px"
	 viewBox="0 0 650 775" enable-background="new 0 0 650 775" xml:space="preserve">
<g>
	<g>
		<defs>
			<rect id="SVGID_1_" y="2.3" width="650" height="770.5"/>
		</defs>
		<clipPath id="SVGID_2_">
			<use xlink:href="#SVGID_1_"  overflow="visible"/>
		</clipPath>
		<g clip-path="url(#SVGID_2_)">
			<g>
				<defs>
					<rect id="SVGID_3_" y="2.3" width="650" height="770.5"/>
				</defs>
				<clipPath id="SVGID_4_">
					<use xlink:href="#SVGID_3_"  overflow="visible"/>
				</clipPath>
				<g clip-path="url(#SVGID_4_)">
					<g>
						<g>
							<defs>
								<rect id="SVGID_5_" x="78.1" y="386.4" width="581.8" height="387.5"/>
							</defs>
							<clipPath id="SVGID_6_">
								<use xlink:href="#SVGID_5_"  overflow="visible"/>
							</clipPath>
							<path clip-path="url(#SVGID_6_)" fill="#74C3D6" d="M576.2,387.4c-42.1,30.9-98.9,43.7-162.3,43.7h8.1l-4,0.6h-4
								c84,0,148,26,148,126c0,105-72.1,127-148,127H88v88h326c93,0,236-37,236-215C650,475.2,621.8,420.8,576.2,387.4"/>
						</g>
					</g>
					<g>
						<defs>
							<rect id="SVGID_7_" y="2.3" width="650" height="770.5"/>
						</defs>
						<clipPath id="SVGID_8_">
							<use xlink:href="#SVGID_7_"  overflow="visible"/>
						</clipPath>
						<g clip-path="url(#SVGID_8_)">
							<g opacity="0.65">
								<g>
									<defs>
										<rect id="SVGID_9_" x="-9.8" y="1.1" width="669.7" height="772.7"/>
									</defs>
									<clipPath id="SVGID_10_">
										<use xlink:href="#SVGID_9_"  overflow="visible"/>
									</clipPath>
									<path clip-path="url(#SVGID_10_)" fill="#FFFFFF" d="M88,90.3h326c76,0,148,22,148,127c0,100-64,126-148,126H88V90.3z
										 M413.9,2.3H88H0v770.5h88v-88V431.8v-0.6h326c63.4,0,120.2-12.9,162.3-43.7c45.5-33.4,73.8-87.6,73.8-170.2
										C650,39.2,506.9,2.3,413.9,2.3"/>
								</g>
							</g>
						</g>
					</g>
				</g>
			</g>
		</g>
	</g>
</g>
</svg>
