<?xml version="1.0" encoding="utf-8"?>
<!-- Generator: Adobe Illustrator 15.0.2, SVG Export Plug-In . SVG Version: 6.00 Build 0)  -->
<!DOCTYPE svg PUBLIC "-//W3C//DTD SVG 1.1//EN" "http://www.w3.org/Graphics/SVG/1.1/DTD/svg11.dtd">
<svg version="1.1" id="Layer_1" xmlns="http://www.w3.org/2000/svg" xmlns:xlink="http://www.w3.org/1999/xlink" x="0px" y="0px"
	 width="612px" height="792px" viewBox="0 0 612 792" enable-background="new 0 0 612 792" xml:space="preserve">
<g>
	<g>
		<g>
			<defs>
				<rect id="SVGID_1_" y="33.319" width="612" height="725.455"/>
			</defs>
			<clipPath id="SVGID_2_">
				<use xlink:href="#SVGID_1_"  overflow="visible"/>
			</clipPath>
			<g clip-path="url(#SVGID_2_)">
				<g>
					<g>
						<defs>
							<rect id="SVGID_3_" y="33.319" width="612" height="725.455"/>
						</defs>
						<clipPath id="SVGID_4_">
							<use xlink:href="#SVGID_3_"  overflow="visible"/>
						</clipPath>
						<g clip-path="url(#SVGID_4_)">
							<g>
								<g>
									<g opacity="0.65">
										<defs>
											<rect id="SVGID_5_" x="73.534" y="394.964" opacity="0.65" width="547.787" height="364.846"/>
										</defs>
										<clipPath id="SVGID_6_">
											<use xlink:href="#SVGID_5_"  overflow="visible"/>
										</clipPath>
										<path clip-path="url(#SVGID_6_)" fill="#74C3D6" d="M542.515,395.906c-39.639,29.093-93.118,41.145-152.812,41.145h7.626
											l-3.766,0.565h-3.767c79.089,0,139.348,24.479,139.348,118.634c0,98.861-67.885,119.575-139.348,119.575H82.855v82.855
											h306.941C477.36,758.681,612,723.844,612,556.25C612,478.573,585.448,427.354,542.515,395.906"/>
									</g>
								</g>
								<g>
									<g>
										<defs>
											<rect id="SVGID_7_" y="33.319" width="612" height="725.455"/>
										</defs>
										<clipPath id="SVGID_8_">
											<use xlink:href="#SVGID_7_"  overflow="visible"/>
										</clipPath>
										<g clip-path="url(#SVGID_8_)">
											<g>
												<g opacity="0.65">
													<g>
														<defs>
															<rect id="SVGID_9_" x="-9.227" y="32.189" width="630.548" height="727.526"/>
														</defs>
														<clipPath id="SVGID_10_">
															<use xlink:href="#SVGID_9_"  overflow="visible"/>
														</clipPath>
														<path clip-path="url(#SVGID_10_)" fill="#FFFFFF" d="M82.855,116.175h306.941
															c71.557,0,139.348,20.714,139.348,119.575c0,94.154-60.259,118.634-139.348,118.634H82.855V116.175z M389.703,33.319
															H82.855H0v725.455h82.855v-82.855V437.71v-0.564h306.941c59.693,0,113.173-12.146,152.812-41.146
															c42.84-31.447,69.485-82.479,69.485-160.25C612,68.062,477.266,33.319,389.703,33.319"/>
													</g>
												</g>
											</g>
										</g>
									</g>
								</g>
							</g>
						</g>
					</g>
				</g>
			</g>
		</g>
	</g>
</g>
</svg>
