<?xml version="1.0" encoding="utf-8"?>
<!-- Generator: Adobe Illustrator 18.1.1, SVG Export Plug-In . SVG Version: 6.00 Build 0)  -->
<svg version="1.1" id="Layer_1" xmlns="http://www.w3.org/2000/svg" xmlns:xlink="http://www.w3.org/1999/xlink" x="0px" y="0px"
	 viewBox="0 0 646.8 766.7" enable-background="new 0 0 646.8 766.7" xml:space="preserve">
<g>
	<defs>
		<rect id="SVGID_1_" x="0" y="0" width="646.8" height="766.7"/>
	</defs>
	<clipPath id="SVGID_2_">
		<use xlink:href="#SVGID_1_"  overflow="visible"/>
	</clipPath>
	<g clip-path="url(#SVGID_2_)">
		<defs>
			<rect id="SVGID_3_" x="0" y="0" width="646.8" height="766.7"/>
		</defs>
		<clipPath id="SVGID_4_">
			<use xlink:href="#SVGID_3_"  overflow="visible"/>
		</clipPath>
		<g clip-path="url(#SVGID_4_)">
			<g>
				<defs>
					<rect id="SVGID_5_" x="77.7" y="382.3" width="578.9" height="385.6"/>
				</defs>
				<clipPath id="SVGID_6_">
					<use xlink:href="#SVGID_5_"  overflow="visible"/>
				</clipPath>
				<path clip-path="url(#SVGID_6_)" fill="#74C3D6" d="M573.4,383.3c-41.9,30.7-98.4,43.5-161.5,43.5H87.6v0.6h324.4
					c83.6,0,147.3,25.9,147.3,125.4c0,104.5-71.7,126.4-147.3,126.4H87.6v87.6h324.4c92.5,0,234.8-36.8,234.8-213.9
					C646.8,470.6,618.7,416.5,573.4,383.3"/>
			</g>
		</g>
		<g opacity="0.65" clip-path="url(#SVGID_4_)">
			<g>
				<defs>
					<rect id="SVGID_7_" x="-9.8" y="-1.1" width="666.4" height="768.9"/>
				</defs>
				<clipPath id="SVGID_8_">
					<use xlink:href="#SVGID_7_"  overflow="visible"/>
				</clipPath>
				<path clip-path="url(#SVGID_8_)" fill="#FFFFFF" d="M87.6,87.6h324.4c75.6,0,147.3,21.9,147.3,126.4
					c0,99.5-63.7,125.4-147.3,125.4H87.6V87.6z M411.9,0H87.6H0v766.7h87.6v-87.6V427.4v-0.6h324.4c63.1,0,119.6-12.8,161.5-43.5
					c45.3-33.2,73.4-87.2,73.4-169.4C646.8,36.8,504.4,0,411.9,0"/>
			</g>
		</g>
	</g>
</g>
</svg>
