<?xml version="1.0" encoding="utf-8"?>
<!-- Generator: Adobe Illustrator 15.0.2, SVG Export Plug-In . SVG Version: 6.00 Build 0)  -->
<!DOCTYPE svg PUBLIC "-//W3C//DTD SVG 1.1//EN" "http://www.w3.org/Graphics/SVG/1.1/DTD/svg11.dtd">
<svg version="1.1" id="Layer_1" xmlns="http://www.w3.org/2000/svg" xmlns:xlink="http://www.w3.org/1999/xlink" x="0px" y="0px"
	 width="252px" height="284.571px" viewBox="273.633 0.49 252 284.571" enable-background="new 273.633 0.49 252 284.571"
	 xml:space="preserve">
<g>
	<g>
		<defs>
			<rect id="SVGID_1_" x="2.041" y="0.49" width="753.796" height="567.673"/>
		</defs>
		<clipPath id="SVGID_2_">
			<use xlink:href="#SVGID_1_"  overflow="visible"/>
		</clipPath>
		<path clip-path="url(#SVGID_2_)" fill="#74C3D6" d="M432.816,135.184C424,141.796,412,144.49,398.53,144.49h-69.061l0,0h69.061
			c17.878,0,31.348,5.388,31.348,26.694c0,22.286-15.184,26.939-31.348,26.939h-69.061v18.612h69.061
			c19.592,0,49.96-7.837,49.96-45.551C448.49,153.796,442.612,142.286,432.816,135.184"/>
	</g>
	<g>
		<defs>
			<rect id="SVGID_3_" x="2.041" y="0.49" width="753.796" height="567.673"/>
		</defs>
		<clipPath id="SVGID_4_">
			<use xlink:href="#SVGID_3_"  overflow="visible"/>
		</clipPath>
		<path clip-path="url(#SVGID_4_)" fill="#929497" d="M329.714,72.49h69.061c16.163,0,31.347,4.653,31.347,26.939
			c0,21.061-13.469,26.694-31.347,26.694h-69.061V72.49z M398.53,53.633h-69.061h-18.612v163.102h18.612v-18.612v-53.388l0,0h69.061
			c13.47,0,25.47-2.694,34.286-9.306c9.551-7.102,15.674-18.612,15.674-36C448.49,61.469,418.122,53.633,398.53,53.633"/>
	</g>
</g>
<rect x="327.755" y="265.225" fill="#74C3D6" width="144.979" height="19.836"/>
<rect x="327.755" y="0.49" fill="#929497" width="144.979" height="19.837"/>
<rect x="273.633" y="0.49" fill="#929497" width="19.836" height="284.082"/>
<rect x="505.796" y="0.49" fill="#74C3D6" width="19.837" height="284.082"/>
</svg>
