<?xml version="1.0" encoding="utf-8"?>
<!-- Generator: Adobe Illustrator 15.0.2, SVG Export Plug-In . SVG Version: 6.00 Build 0)  -->
<!DOCTYPE svg PUBLIC "-//W3C//DTD SVG 1.1//EN" "http://www.w3.org/Graphics/SVG/1.1/DTD/svg11.dtd">
<svg version="1.1" id="Layer_1" xmlns="http://www.w3.org/2000/svg" xmlns:xlink="http://www.w3.org/1999/xlink" x="0px" y="0px"
	 width="800px" height="600px" viewBox="0 0 800 600" enable-background="new 0 0 800 600" xml:space="preserve">
<g>
	<g>
		<g>
			<g>
				<defs>
					<rect id="SVGID_1_" x="1.515" y="0" width="796.971" height="600"/>
				</defs>
				<clipPath id="SVGID_2_">
					<use xlink:href="#SVGID_1_"  overflow="visible"/>
				</clipPath>
				<path clip-path="url(#SVGID_2_)" fill="#74C3D6" d="M1.515,459.271h15.718v-82.275H1.515v-10.07h46.418
					c16.947,0,39.788,0.737,39.788,27.262c0,11.053-7.614,20.385-20.385,22.35v0.246c14.49-0.246,23.577,8.351,23.577,23.577
					c0,25.297-20.385,28.735-42.98,28.735H1.515V459.271z M31.232,412.607h16.456c13.262,0,25.296-2.456,25.296-18.42
					c0-16.945-14.736-17.191-25.051-17.191H31.232V412.607z M31.232,459.271h16.701c14.491,0,28.244-2.456,28.244-18.665
					c0-15.473-13.017-17.929-28.244-17.929H31.232V459.271z"/>
			</g>
		</g>
	</g>
	<polygon fill="#74C3D6" points="133.156,459.271 148.875,459.271 148.875,376.996 133.156,376.996 133.156,366.926 
		178.346,366.926 178.346,376.996 162.628,376.996 162.628,459.271 178.346,459.271 178.346,469.342 133.156,469.342 	"/>
	<g>
		<g>
			<g>
				<defs>
					<rect id="SVGID_3_" x="1.515" y="0" width="796.971" height="600"/>
				</defs>
				<clipPath id="SVGID_4_">
					<use xlink:href="#SVGID_3_"  overflow="visible"/>
				</clipPath>
				<path clip-path="url(#SVGID_4_)" fill="#74C3D6" d="M220.589,469.342v-34.63h12.28c0,15.964,9.333,26.033,24.805,26.033
					c9.824,0,21.367-5.648,21.367-19.156c0-10.562-9.087-14.245-25.051-18.911c-20.139-5.649-33.893-11.544-33.893-29.963
					c0-18.912,16.455-27.754,34.629-27.754c9.087,0,19.157,3.93,23.578,11.544h0.491v-9.824h11.789v33.893h-12.035
					c0.737-16.455-8.104-25.296-24.068-25.296c-9.824,0-19.894,5.156-19.894,17.683c0,8.596,9.824,13.017,27.016,18.42
					c19.648,6.14,31.928,11.298,31.928,30.454c0,18.666-14.982,29.227-34.384,29.227c-11.543,0-20.876-4.175-26.524-13.508h-0.246
					v11.789H220.589L220.589,469.342z"/>
			</g>
		</g>
	</g>
	<polygon fill="#74C3D6" points="445.312,459.271 445.312,469.342 400.368,469.342 400.368,459.271 415.842,459.271 
		415.842,422.678 362.3,422.678 362.3,459.271 378.019,459.271 378.019,469.342 332.829,469.342 332.829,459.271 348.547,459.271 
		348.547,376.996 332.829,376.996 332.829,366.926 378.019,366.926 378.019,376.996 362.3,376.996 362.3,412.607 415.842,412.607 
		415.842,376.996 400.368,376.996 400.368,366.926 445.312,366.926 445.312,376.996 429.595,376.996 429.595,459.271 	"/>
	<g>
		<g>
			<g>
				<defs>
					<rect id="SVGID_5_" x="1.515" y="0" width="796.971" height="600"/>
				</defs>
				<clipPath id="SVGID_6_">
					<use xlink:href="#SVGID_5_"  overflow="visible"/>
				</clipPath>
				<path clip-path="url(#SVGID_6_)" fill="#74C3D6" d="M526.606,470.815c-34.138,0-52.067-19.894-52.067-52.805
					c0-32.91,17.93-52.804,52.067-52.804c34.139,0,52.067,19.894,52.067,52.804C578.674,450.922,560.745,470.815,526.606,470.815
					 M526.606,375.277c-23.577,0-37.331,13.998-37.331,42.733c0,24.561,13.754,42.734,37.331,42.734s37.331-18.174,37.331-42.734
					C563.938,389.275,550.184,375.277,526.606,375.277"/>
			</g>
		</g>
		<g>
			<g>
				<defs>
					<rect id="SVGID_7_" x="1.515" y="0" width="796.971" height="600"/>
				</defs>
				<clipPath id="SVGID_8_">
					<use xlink:href="#SVGID_7_"  overflow="visible"/>
				</clipPath>
				<path clip-path="url(#SVGID_8_)" fill="#74C3D6" d="M607.9,459.271h15.719v-82.275H607.9v-10.07h44.453
					c21.613,0,41.261,4.422,41.261,30.455s-19.647,30.7-41.261,30.7h-15.227v31.19h18.91v10.07H607.9V459.271z M637.372,418.011
					H652.6c13.262,0,26.524-1.474,26.524-20.63S665.861,376.75,652.6,376.75h-15.228V418.011z"/>
			</g>
		</g>
		<g>
			<g>
				<defs>
					<rect id="SVGID_9_" x="1.515" y="0" width="796.971" height="600"/>
				</defs>
				<clipPath id="SVGID_10_">
					<use xlink:href="#SVGID_9_"  overflow="visible"/>
				</clipPath>
				<path clip-path="url(#SVGID_10_)" fill="#74C3D6" d="M725.051,469.342v-34.63h12.28c0,15.964,9.333,26.033,24.806,26.033
					c9.824,0,21.367-5.648,21.367-19.156c0-10.562-9.087-14.245-25.051-18.911c-20.14-5.649-33.894-11.544-33.894-29.963
					c0-18.912,16.456-27.754,34.63-27.754c9.087,0,19.157,3.93,23.578,11.544h0.491v-9.824h11.788v33.893h-12.034
					c0.737-16.455-8.104-25.296-24.068-25.296c-9.824,0-19.894,5.156-19.894,17.683c0,8.596,9.823,13.017,27.016,18.42
					c19.648,6.14,31.928,11.298,31.928,30.454c0,18.666-14.981,29.227-34.384,29.227c-11.543,0-20.876-4.175-26.524-13.508h-0.491
					v11.789H725.051L725.051,469.342z"/>
			</g>
		</g>
		<g>
			<g>
				<defs>
					<rect id="SVGID_11_" x="1.515" y="0" width="796.971" height="600"/>
				</defs>
				<clipPath id="SVGID_12_">
					<use xlink:href="#SVGID_11_"  overflow="visible"/>
				</clipPath>
				<path clip-path="url(#SVGID_12_)" fill="#929497" d="M248.588,577.896h-14.49v21.121h-6.877v-60.172h22.595
					c13.508,0,22.595,7.123,22.595,19.157C272.166,571.266,261.359,577.896,248.588,577.896 M249.079,545.231h-15.227v26.525h14.736
					c10.069,0,16.455-5.403,16.455-13.263C265.289,549.652,258.903,545.231,249.079,545.231"/>
			</g>
		</g>
	</g>
	<polygon fill="#929497" points="301.637,539.092 308.514,539.092 308.514,592.878 342.161,592.878 342.161,599.018 
		301.637,599.018 	"/>
	<path fill="#929497" d="M427.875,599.018h-7.367l-7.123-15.964H380.72l-7.122,15.964h-6.877l27.507-60.663h6.385L427.875,599.018z
		 M397.176,546.46l-13.754,30.699h27.508L397.176,546.46z"/>
	<g>
		<g>
			<g>
				<defs>
					<rect id="SVGID_13_" x="1.515" y="0" width="796.971" height="600"/>
				</defs>
				<clipPath id="SVGID_14_">
					<use xlink:href="#SVGID_13_"  overflow="visible"/>
				</clipPath>
				<path clip-path="url(#SVGID_14_)" fill="#929497" d="M480.926,600.246c-17.438,0-30.209-13.754-30.209-30.945
					c0-17.192,12.771-31.191,30.454-31.191c10.806,0,17.438,3.93,23.331,9.578l-4.666,4.912c-5.157-4.912-10.807-8.351-18.91-8.351
					c-13.264,0-23.332,10.807-23.332,24.806s10.068,24.806,23.332,24.806c8.35,0,13.753-3.192,19.402-8.596l4.42,4.421
					C498.608,595.825,491.731,600.246,480.926,600.246"/>
			</g>
		</g>
	</g>
	<polygon fill="#929497" points="577.445,545.231 540.605,545.231 540.605,565.616 573.516,565.616 573.516,571.757 
		540.605,571.757 540.605,592.878 577.938,592.878 577.938,599.018 533.975,599.018 533.975,539.092 577.445,539.092 	"/>
	<g>
		<g>
			<g>
				<defs>
					<rect id="SVGID_15_" x="18.707" y="0" width="755.956" height="569.3"/>
				</defs>
				<clipPath id="SVGID_16_">
					<use xlink:href="#SVGID_15_"  overflow="visible"/>
				</clipPath>
				<path clip-path="url(#SVGID_16_)" fill="#74C3D6" d="M450.717,135.08c-8.842,6.631-20.877,9.333-34.385,9.333h-69.259l0,0
					h69.259c17.93,0,31.438,5.403,31.438,26.771c0,22.349-15.228,27.016-31.438,27.016h-69.259v18.666h69.259
					c19.648,0,50.103-7.859,50.103-45.681C466.435,153.746,460.541,142.203,450.717,135.08"/>
			</g>
		</g>
		<g>
			<g>
				<defs>
					<rect id="SVGID_17_" x="18.707" y="0" width="755.956" height="569.3"/>
				</defs>
				<clipPath id="SVGID_18_">
					<use xlink:href="#SVGID_17_"  overflow="visible"/>
				</clipPath>
				<path clip-path="url(#SVGID_18_)" fill="#929497" d="M347.319,72.207h69.259c16.209,0,31.437,4.667,31.437,27.016
					c0,21.122-13.508,26.771-31.437,26.771h-69.259V72.207z M416.332,53.295h-69.259h-18.666v163.569h18.666v-18.666v-53.541l0,0
					h69.259c13.508,0,25.543-2.702,34.385-9.333c9.578-7.123,15.718-18.666,15.718-36.103
					C466.435,61.155,435.98,53.295,416.332,53.295"/>
			</g>
		</g>
	</g>
	<rect x="328.162" y="265.494" fill="#74C3D6" width="145.395" height="19.894"/>
	<rect x="328.162" y="0" fill="#929497" width="145.395" height="19.894"/>
	<rect x="273.885" y="0" fill="#929497" width="19.894" height="284.896"/>
	<rect x="506.713" y="0" fill="#74C3D6" width="19.894" height="284.896"/>
</g>
</svg>
