<svg xmlns="http://www.w3.org/2000/svg" width="193.514" height="576.824" viewBox="194.379 100.388 193.514 576.824"><g fill="#FFF"><path d="M326.684 114.82c26.73 0 48.646 19.78 48.646 49.983 0 30.203-20.312 52.922-47.31 52.922-23.253 0-46.507-21.383-46.507-52.12 0-29.67 19.244-50.784 45.17-50.784m-110.654-7.75c-13.366 16.303-21.65 32.608-21.65 53.99 0 46.51 44.903 76.177 101.567 76.177 39.02 0 57.732-8.286 73.234-23.788 11.228-11.227 18.712-28.334 18.712-47.578 0-36.886-25.928-65.484-61.742-65.484-33.68 0-56.933 29.936-56.933 64.416 0 30.47 16.57 47.843 34.746 58.535-57.198 1.335-97.024-23.255-97.024-61.21 0-17.64 6.95-31.806 19.78-46.24l-10.69-8.82zm-4.01 228.792l10.958-3.74-12.295-36.085h174.002v-13.632H196.25v10.69l15.77 42.767zM291.4 374.38c43.834 0 83.928 24.056 83.928 62.812s-40.627 63.347-84.46 63.347c-43.836 0-83.93-24.057-83.93-62.813s40.628-63.347 84.462-63.347m-.533-14.433c-51.854 0-96.49 29.668-96.49 77.245 0 47.575 45.17 77.778 97.022 77.778 51.854 0 96.49-29.67 96.49-77.245s-45.17-77.778-97.023-77.778m-83.662 248.306c0-22.452 15.77-42.23 40.093-42.23 19.78 0 35.816 10.69 63.882 41.43l63.078 69.76h10.426V549.45H371.32v105.845l-51.854-57.2c-29.935-32.875-47.04-46.772-72.968-46.772-29.4 0-51.585 23.788-51.585 55.595 0 32.876 15.235 50.25 40.093 66.555l6.95-10.425c-22.453-15.504-34.748-31.007-34.748-54.795"/><path d="M329.627 414.197h-1.025l-2.98 8.666-2.978-8.704h-.756l-2.98 8.703-2.978-8.666h-1.063l3.616 9.94h.812l2.96-8.452 2.938 8.453h.812l3.622-9.94zm-24.393 4.468c.174-2.187 1.683-3.83 3.637-3.83 2.265 0 3.405 1.838 3.54 3.83h-7.176zm0 .852h8.182c.02-.154.02-.213.02-.348v-.04c0-2.92-1.76-5.164-4.525-5.164-2.667 0-4.68 2.282-4.68 5.146v.04c0 3.073 2.245 5.145 4.835 5.145 1.896 0 3.076-.773 4.082-1.856l-.658-.58c-.813.87-1.857 1.548-3.386 1.548-1.935-.004-3.696-1.434-3.87-3.89m-4.14 4.544v-13.54h-.966v11.78l-9.343-11.78h-.948v13.54h.967v-12.03l9.536 12.03h.755zm-21.76-4.913c0 2.513-1.972 4.233-4.022 4.233-2.07 0-3.87-1.663-3.87-4.255v-.04c0-2.647 1.723-4.215 3.87-4.215 2.05 0 4.023 1.702 4.023 4.235v.04zm.89 4.912v-14.12h-.947v6.383c-.812-1.238-2.09-2.36-4.062-2.36-2.38 0-4.797 1.954-4.797 5.165v.04c0 3.21 2.418 5.125 4.797 5.125 1.954 0 3.21-1.142 4.062-2.438v2.205h.948zm-12.572 0v-6.035c0-2.36-1.45-4.062-3.946-4.062-1.8 0-2.902.91-3.56 2.07v-1.84h-.948v9.865h.948v-5.707c0-2.05 1.49-3.52 3.424-3.52 1.992 0 3.133 1.335 3.133 3.365v5.86h.95v.004zm-12.766-3.695c0 1.8-1.722 3.037-3.733 3.037-1.51 0-2.863-.83-2.863-2.264v-.04c0-1.372 1.16-2.3 3.25-2.3 1.412 0 2.515.23 3.347.443v1.123zm.91 3.695v-6.15c0-2.555-1.587-3.87-4.12-3.87-1.355 0-2.42.35-3.502.852l.348.832c.91-.464 1.896-.793 3.095-.793 2.03 0 3.25 1.025 3.25 3.02v.424c-.95-.25-1.896-.425-3.27-.425-2.553 0-4.313 1.16-4.313 3.21v.04c0 2.05 1.973 3.095 3.81 3.095 1.877 0 3.096-.93 3.772-1.877v1.646h.93v-.004zm-9.635-8.975v-1.044c-1.952-.077-3.597 1.2-4.37 2.96v-2.806h-.948v9.865h.948v-4.044c0-3.21 1.992-4.933 4.275-4.933l.096.002zm-9.36 5.28c0 1.703-1.47 2.767-3.792 2.767h-4.913v-5.436h4.584c2.668 0 4.12.967 4.12 2.63v.04zm-.756-6.382c0 1.798-1.45 2.783-3.48 2.783h-4.47v-5.317h4.566c2.167 0 3.385 1.007 3.385 2.496v.04zm1.78 6.382v-.038c0-1.877-1.43-2.806-3.056-3.23 1.103-.445 2.302-1.374 2.302-3.212v-.038c0-2.03-1.76-3.326-4.39-3.326h-5.59v13.54h5.88c2.92-.002 4.854-1.433 4.854-3.697M337.38 441.81v-.037c0-1.74-1.664-2.32-3.25-2.768-1.412-.406-2.746-.812-2.746-1.915v-.038c0-.986.89-1.722 2.243-1.722 1.045 0 2.128.387 3.037.986l.503-.793c-.987-.657-2.32-1.083-3.5-1.083-1.915 0-3.25 1.14-3.25 2.728v.038c0 1.76 1.778 2.244 3.384 2.708 1.375.387 2.612.812 2.612 1.974v.038c0 1.143-1.044 1.876-2.38 1.876-1.257 0-2.456-.464-3.538-1.296l-.56.754c1.042.853 2.608 1.433 4.04 1.433 1.897-.002 3.406-1.124 3.406-2.883m-9.44 2.514v-.89c-.562.25-.968.35-1.45.35-1.143 0-1.973-.505-1.973-1.916v-6.364h3.46v-.87h-3.46v-3.153h-.95v3.154h-1.43v.87h1.43v6.46c0 1.877 1.24 2.71 2.768 2.71.62 0 1.103-.118 1.604-.35m-8.297.174v-6.034c0-2.36-1.45-4.062-3.944-4.062-1.8 0-2.902.908-3.56 2.07v-1.84h-.948v9.865h.947v-5.706c0-2.05 1.487-3.52 3.423-3.52 1.992 0 3.133 1.335 3.133 3.365v5.86l.947.003zm-19.42-5.396c.174-2.186 1.684-3.83 3.637-3.83 2.263 0 3.404 1.84 3.54 3.83h-7.177zm0 .85h8.18c.022-.154.022-.212.022-.35v-.037c0-2.92-1.76-5.164-4.526-5.164-2.67 0-4.682 2.282-4.682 5.146v.04c0 3.075 2.244 5.145 4.835 5.145 1.896 0 3.076-.772 4.082-1.855l-.657-.58c-.812.87-1.856 1.547-3.386 1.547-1.934 0-3.695-1.433-3.87-3.89m-3.81 4.546v-5.977c0-2.476-1.45-4.12-3.79-4.12-1.857 0-2.92 1.025-3.56 2.13-.542-1.144-1.605-2.13-3.327-2.13-1.76 0-2.65.968-3.288 1.992v-1.76h-.947v9.864h.948v-5.688c0-1.99 1.393-3.54 3.153-3.54s2.883 1.26 2.883 3.31v5.918h.948v-5.744c0-2.206 1.452-3.48 3.115-3.48 1.818 0 2.92 1.236 2.92 3.364v5.86l.948.002zm-17.756-.174v-.89c-.56.25-.967.35-1.45.35-1.142 0-1.974-.505-1.974-1.916v-6.364h3.462v-.87h-3.462v-3.153h-.948v3.154h-1.432v.87h1.432v6.46c0 1.877 1.238 2.71 2.766 2.71.62 0 1.103-.118 1.606-.35m-7.312-8.8v-1.047c-1.954-.076-3.598 1.2-4.372 2.96v-2.805h-.947v9.864h.947v-4.042c0-3.212 1.993-4.933 4.275-4.933l.097.003zm-9.632 5.28c0 1.8-1.722 3.037-3.733 3.037-1.51 0-2.864-.83-2.864-2.263v-.038c0-1.374 1.16-2.303 3.25-2.303 1.412 0 2.514.23 3.346.443v1.124zm.91 3.694v-6.15c0-2.554-1.587-3.87-4.12-3.87-1.355 0-2.42.35-3.502.854l.348.832c.91-.465 1.896-.794 3.095-.794 2.03 0 3.25 1.024 3.25 3.018v.426c-.948-.252-1.896-.426-3.27-.426-2.552 0-4.312 1.16-4.312 3.21v.04c0 2.05 1.974 3.096 3.812 3.096 1.876 0 3.095-.93 3.77-1.876v1.644h.93v-.004zm-11.684-4.894c0 2.65-1.72 4.218-3.868 4.218-2.05 0-4.023-1.702-4.023-4.236v-.04c0-2.513 1.973-4.234 4.023-4.234 2.07 0 3.868 1.663 3.868 4.256v.036zm1.026-.04v-.037c0-3.21-2.418-5.126-4.797-5.126-1.953 0-3.21 1.142-4.062 2.44v-2.206h-.948v12.96h.948v-5.223c.812 1.238 2.09 2.36 4.062 2.36 2.38 0 4.797-1.953 4.797-5.165m-15.707.233h-7.138l3.578-7.834 3.56 7.834zm3.25 4.7l-6.306-13.636h-.966l-6.306 13.636h1.044l1.722-3.79h7.99l1.72 3.79h1.103zM346.113 460.366c0 1.41-1.025 2.476-2.71 2.476-1.7 0-2.804-1.045-2.804-2.457 0-1.314 1.062-2.397 2.747-2.397 1.682-.002 2.766 1.004 2.766 2.378m1.875-7.97c-1.18-.948-2.38-1.51-4.14-1.51-3.83 0-5.803 3.23-5.803 7.39 0 2.746.618 4.157 1.646 5.202.91.892 2.108 1.412 3.772 1.412 2.845 0 5.03-1.896 5.03-4.623 0-2.727-2.11-4.273-4.74-4.273-1.586 0-2.516.657-3.23 1.354.117-2.477 1.238-4.294 3.25-4.294 1.18 0 1.994.444 2.94 1.18l1.276-1.838zm-18.297-.212l.503 1.935 2.438-.678v11.22h2.36v-13.638h-1.663l-3.636 1.16zm-3.58 5.725c0 2.687-1.315 4.834-3.425 4.834-2.106 0-3.46-2.166-3.46-4.874s1.312-4.836 3.423-4.836c2.108 0 3.463 2.187 3.463 4.875m2.456-.04c0-3.888-2.32-6.982-5.88-6.982s-5.92 3.134-5.92 7.02 2.322 6.982 5.882 6.982c3.56 0 5.918-3.132 5.918-7.02m-18.414-4.815c1.238 0 2.186.772 2.186 2.107 0 1.22-.676 2.09-2.533 3.656l-4.662 3.965v1.877h9.787v-2.09h-6.438l2.784-2.32c2.398-1.954 3.52-3.115 3.52-5.262 0-2.418-1.76-4.062-4.468-4.062-2.418 0-3.694 1.024-4.99 2.843l1.683 1.314c1.042-1.354 1.894-2.03 3.132-2.03m-14.448 6.21c0 2.243-2.03 3.752-4.08 3.752-2.032 0-3.812-1.548-3.812-3.77v-.04c0-2.302 1.74-3.733 3.81-3.733 2.052 0 4.082 1.472 4.082 3.753v.037zm.89 3.868v-8.337h-.948v1.973c-.812-1.16-2.147-2.205-4.12-2.205-2.38 0-4.74 1.84-4.74 4.683v.038c0 2.824 2.36 4.643 4.74 4.643 1.954 0 3.27-1.063 4.12-2.282v1.432c0 2.534-1.606 3.83-3.87 3.83-1.45 0-2.804-.483-3.983-1.394l-.56.773c1.353 1.006 2.88 1.51 4.525 1.51 2.805-.003 4.836-1.666 4.836-4.664m-12.573 1.528v-6.035c0-2.36-1.45-4.062-3.945-4.062-1.8 0-2.9.91-3.56 2.07v-1.838h-.947v9.865h.948v-5.707c0-2.05 1.49-3.52 3.423-3.52 1.99 0 3.133 1.334 3.133 3.365v5.86l.948.002zm-12.185-9.865h-.948v9.865h.948v-9.865zm.117-3.868h-1.18v1.296h1.18v-1.296zm-4.68 13.733v-5.98c0-2.475-1.452-4.118-3.792-4.118-1.857 0-2.92 1.024-3.56 2.128-.54-1.143-1.604-2.128-3.326-2.128-1.76 0-2.65.968-3.288 1.99v-1.76h-.948v9.866h.948v-5.688c0-1.992 1.393-3.54 3.153-3.54s2.88 1.26 2.88 3.31v5.92h.948v-5.746c0-2.206 1.45-3.482 3.114-3.482 1.818 0 2.92 1.238 2.92 3.366v5.86l.95.002zm-18.86-4.894c0 2.32-1.684 4.236-4.024 4.236-2.283 0-4.062-1.896-4.062-4.275v-.037c0-2.32 1.683-4.236 4.023-4.236 2.28 0 4.06 1.896 4.06 4.273v.04zm1.025-.04v-.036c0-2.767-2.127-5.127-5.048-5.127-2.94 0-5.088 2.398-5.088 5.164v.04c0 2.767 2.128 5.125 5.05 5.125 2.938 0 5.085-2.4 5.085-5.165m-11.818 2.805l-.678-.658c-1.374 1.354-2.708 2.108-4.662 2.108-3.23 0-5.726-2.67-5.726-6.094v-.04c0-3.402 2.457-6.053 5.706-6.053 2.03 0 3.385.852 4.565 1.992l.716-.734c-1.392-1.276-2.843-2.167-5.26-2.167-3.907 0-6.77 3.172-6.77 7.002v.04c0 3.888 2.863 6.962 6.73 6.962 2.4.002 3.948-.946 5.38-2.358"/></g></svg>