<svg xmlns="http://www.w3.org/2000/svg" viewBox="0 0 279.6 833.7"><g fill="#FFF"><path d="M68.7 813.2l-10 15.1C22.8 804.7.8 779.6.8 732.2c0-46 32-80.3 74.5-80.3 37.5 0 62.2 20.1 105.4 67.6l74.9 82.6v-153h19.3v184.6h-15.1l-91.1-100.8C128.2 688.5 105 673 76.5 673c-35.1 0-57.9 28.6-57.9 61-.1 34.4 17.7 56.8 50.1 79.2zM279.6 487.7c0 68.7-64.5 111.6-139.4 111.6S0 555.7 0 486.9c0-68.7 64.5-111.6 139.4-111.6S279.6 419 279.6 487.7zm-261.5 0c0 56 57.9 90.7 121.2 90.7s122-35.5 122-91.5-57.9-90.7-121.2-90.7-122 35.5-122 91.5zM2.7 278.4V263h272.2v19.7H23.6l17.8 52.1-15.8 5.4-22.9-61.8zM46.7 22.4C28.2 43.2 18.1 63.7 18.1 89.2c0 54.8 57.5 90.4 140.2 88.4-26.3-15.4-50.2-40.5-50.2-84.6 0-49.8 33.6-93.1 82.2-93.1 51.7 0 89.2 41.3 89.2 94.6 0 27.8-10.8 52.5-27 68.7-22.4 22.4-49.4 34.4-105.8 34.4C64.9 197.7 0 154.8 0 87.7c0-30.9 12-54.4 31.3-78l15.4 12.7zm79.2 71.8c0 44.4 33.6 75.3 67.2 75.3 39 0 68.3-32.8 68.3-76.5 0-43.6-31.7-72.2-70.3-72.2-37.4.1-65.2 30.6-65.2 73.4z"/></g><g fill="#FFF"><path d="M59.6 483.1h-9.8v-22.6h9.3c4.4 0 7.3 2.2 7.3 5.6v.1c0 3.1-2 4.6-3.8 5.4 2.7.7 5.1 2.3 5.1 5.4v.1c0 3.6-3.2 6-8.1 6zm5.1-17c0-2.5-2-4.2-5.7-4.2h-7.6v8.9h7.5c3.4.1 5.8-1.6 5.8-4.7zm1.3 10.7c0-2.8-2.4-4.4-6.9-4.4h-7.7v9.1h8.2c3.9 0 6.4-1.8 6.4-4.7zM81.5 468c-3.8 0-7.1 2.9-7.1 8.2v6.8h-1.6v-16.5h1.6v4.7c1.3-2.9 4-5.1 7.3-4.9v1.7h-.2zM96.2 483.1v-2.7c-1.1 1.6-3.2 3.1-6.3 3.1-3.1 0-6.4-1.7-6.4-5.2v-.1c0-3.4 2.9-5.4 7.2-5.4 2.3 0 3.9.3 5.5.7v-.7c0-3.3-2-5-5.4-5-2 0-3.7.5-5.2 1.3l-.6-1.4c1.8-.8 3.6-1.4 5.9-1.4 4.2 0 6.9 2.2 6.9 6.5v10.3h-1.6zm.1-8.1c-1.4-.4-3.2-.7-5.6-.7-3.5 0-5.4 1.6-5.4 3.8v.1c0 2.4 2.3 3.8 4.8 3.8 3.4 0 6.2-2.1 6.2-5.1V475zM116 483.1v-9.8c0-3.4-1.9-5.6-5.2-5.6-3.2 0-5.7 2.5-5.7 5.9v9.5h-1.6v-16.5h1.6v3.1c1.1-1.9 2.9-3.5 6-3.5 4.2 0 6.6 2.8 6.6 6.8v10.1H116zM137 483.1v-3.7c-1.4 2.2-3.5 4.1-6.8 4.1-4 0-8-3.2-8-8.6v-.1c0-5.4 4-8.6 8-8.6 3.3 0 5.4 1.9 6.8 3.9v-10.7h1.6V483H137zm.1-8.3c0-4.2-3.3-7.1-6.7-7.1-3.6 0-6.5 2.6-6.5 7v.1c0 4.3 3 7.1 6.5 7.1 3.4 0 6.7-2.9 6.7-7.1zM172.2 483.1L156.3 463v20.1h-1.6v-22.6h1.6l15.6 19.7v-19.7h1.6v22.6h-1.3zM186.9 482c2.6 0 4.3-1.1 5.7-2.6l1.1 1c-1.7 1.8-3.7 3.1-6.8 3.1-4.3 0-8.1-3.5-8.1-8.6v-.1c0-4.8 3.4-8.6 7.8-8.6 4.6 0 7.6 3.8 7.6 8.6v.7h-13.7c.2 4.1 3.2 6.5 6.4 6.5zm5.5-8c-.2-3.3-2.1-6.4-5.9-6.4-3.3 0-5.8 2.7-6.1 6.4h12zM215.1 483.2h-1.4l-4.9-14.1-4.9 14.1h-1.4l-6-16.6h1.8l5 14.5 5-14.6h1.3l5 14.6 5-14.5h1.7l-6.2 16.6z"/></g><g fill="#FFF"><path d="M68.7 514.5l-2.9-6.3H52.5l-2.9 6.3h-1.7l10.5-22.8H60l10.5 22.8h-1.8zm-9.6-20.9l-6 13.1H65l-5.9-13.1zM83.3 514.9c-3.3 0-5.4-1.9-6.8-3.9v8.7H75V498h1.6v3.7c1.4-2.2 3.5-4.1 6.8-4.1 4 0 8 3.2 8 8.6v.1c-.1 5.4-4.1 8.6-8.1 8.6zm6.3-8.6c0-4.3-3-7.1-6.5-7.1-3.4 0-6.7 2.9-6.7 7.1v.1c0 4.2 3.3 7.1 6.7 7.1 3.7-.1 6.5-2.7 6.5-7.2zM107.6 514.5v-2.7c-1.1 1.6-3.2 3.1-6.3 3.1-3.1 0-6.4-1.7-6.4-5.2v-.1c0-3.4 2.9-5.4 7.2-5.4 2.3 0 3.9.3 5.5.7v-.7c0-3.3-2-5-5.4-5-2 0-3.7.5-5.2 1.3l-.6-1.4c1.8-.8 3.6-1.4 5.9-1.4 4.2 0 6.9 2.2 6.9 6.5v10.3h-1.6zm0-8c-1.4-.4-3.2-.7-5.6-.7-3.5 0-5.4 1.6-5.4 3.8v.1c0 2.4 2.3 3.8 4.8 3.8 3.4 0 6.2-2.1 6.2-5.1v-1.9zM123.6 499.5c-3.8 0-7.1 2.9-7.1 8.2v6.8h-1.6V498h1.6v4.7c1.3-2.9 4-5.1 7.3-4.9v1.7h-.2zM133.3 514.8c-2.6 0-4.6-1.4-4.6-4.5v-10.8h-2.4V498h2.4v-5.3h1.6v5.3h5.8v1.5h-5.8v10.6c0 2.4 1.4 3.2 3.3 3.2.8 0 1.5-.2 2.4-.6v1.5c-.9.4-1.7.6-2.7.6zM164.1 514.5v-9.8c0-3.6-1.8-5.6-4.9-5.6-2.8 0-5.2 2.1-5.2 5.8v9.6h-1.6v-9.9c0-3.4-1.9-5.5-4.8-5.5s-5.3 2.6-5.3 5.9v9.5h-1.6V498h1.6v2.9c1.1-1.7 2.6-3.3 5.5-3.3s4.7 1.6 5.6 3.6c1.1-1.8 2.8-3.6 6-3.6 3.9 0 6.3 2.7 6.3 6.9v10h-1.6zM178.5 513.4c2.6 0 4.3-1.1 5.7-2.6l1.1 1c-1.7 1.8-3.7 3.1-6.8 3.1-4.3 0-8.1-3.5-8.1-8.6v-.1c0-4.8 3.4-8.6 7.8-8.6 4.6 0 7.6 3.8 7.6 8.6v.7H172c.3 4.2 3.2 6.5 6.5 6.5zm5.5-7.9c-.2-3.3-2.1-6.4-5.9-6.4-3.3 0-5.8 2.7-6.1 6.4h12zM202.9 514.5v-9.8c0-3.4-1.9-5.6-5.2-5.6-3.2 0-5.7 2.5-5.7 5.9v9.5h-1.6V498h1.6v3.1c1.1-1.9 2.9-3.5 6-3.5 4.2 0 6.6 2.8 6.6 6.8v10.1h-1.7zM215.7 514.8c-2.6 0-4.6-1.4-4.6-4.5v-10.8h-2.4V498h2.4v-5.3h1.6v5.3h5.8v1.5h-5.8v10.6c0 2.4 1.4 3.2 3.3 3.2.8 0 1.5-.2 2.4-.6v1.5c-.9.4-1.7.6-2.7.6zM228.4 514.9c-2.4 0-5-1-6.8-2.4l.9-1.3c1.8 1.4 3.8 2.2 5.9 2.2 2.2 0 4-1.2 4-3.1v-.1c0-1.9-2.1-2.7-4.4-3.3-2.7-.8-5.7-1.6-5.7-4.5v-.1c0-2.7 2.2-4.6 5.4-4.6 2 0 4.2.7 5.9 1.8l-.8 1.3c-1.5-1-3.3-1.6-5.1-1.6-2.3 0-3.8 1.2-3.8 2.9v.1c0 1.8 2.2 2.5 4.6 3.2 2.7.7 5.4 1.7 5.4 4.6v.1c.2 2.9-2.3 4.8-5.5 4.8z"/></g></svg>