<svg xmlns="http://www.w3.org/2000/svg" width="201.223" height="600.072" viewBox="299.388 -0.072 201.223 600.072"><g fill="#FFF"><path d="M349.264 585.246l-7.34 10.867c-26.354-16.984-42.503-35.048-42.503-69.16 0-33.106 23.492-57.792 54.69-57.792 27.526 0 45.657 14.467 77.368 48.652l54.98 59.445v-110.11h14.168V600h-11.084l-66.873-72.544c-29.73-31.954-46.76-43.11-67.68-43.11-25.766 0-42.503 20.584-42.503 43.902-.073 24.757 12.993 40.878 36.777 56.998zM500.674 350.99c0 49.44-46.437 80.316-100.36 80.316s-100.94-31.38-100.94-80.893c0-49.442 46.438-80.317 100.362-80.317s100.938 31.45 100.938 80.893zm-188.268 0c0 40.302 41.686 65.274 87.26 65.274 45.572 0 87.833-25.55 87.833-65.85 0-40.304-41.687-65.276-87.26-65.276-45.573 0-87.834 25.55-87.834 65.85zM299.535 200.36v-11.083H500.65v14.178H314.977l13.15 37.496-11.672 3.887-16.92-44.477zM332.997 16.12c-13.32 14.97-20.59 29.724-20.59 48.076 0 39.438 41.396 65.06 100.937 63.62-18.935-11.083-36.142-29.147-36.142-60.885 0-35.84 24.19-67 59.18-67 37.222 0 64.22 29.722 64.22 68.08 0 20.008-7.774 37.784-19.438 49.443-16.127 16.12-35.566 24.757-76.17 24.757-58.894.072-105.618-30.802-105.618-79.093 0-22.238 8.64-39.15 22.535-56.135l11.087 9.14zm57.02 51.674c0 31.954 24.19 54.192 48.38 54.192 28.08 0 49.173-23.605 49.173-55.056 0-31.378-22.822-51.96-50.612-51.96-26.926.072-46.94 22.022-46.94 52.824z"/></g><g fill="#FFF"><path d="M342.28 347.68h-7.052v-16.266h6.693c3.168 0 5.255 1.583 5.255 4.03v.072c0 2.23-1.44 3.31-2.735 3.886 1.943.504 3.67 1.655 3.67 3.887v.07c0 2.592-2.302 4.32-5.83 4.32zm3.672-12.236c0-1.8-1.44-3.022-4.102-3.022h-5.47v6.405h5.398c2.447.07 4.174-1.15 4.174-3.383zm.935 7.7c0-2.014-1.727-3.165-4.966-3.165h-5.54v6.548h5.9c2.808 0 4.607-1.296 4.607-3.383zM358.042 336.812c-2.735 0-5.11 2.087-5.11 5.9v4.896h-1.15v-11.875h1.15v3.383c.936-2.088 2.88-3.67 5.254-3.527v1.223h-.144zM368.622 347.68v-1.943c-.792 1.15-2.303 2.23-4.534 2.23s-4.606-1.224-4.606-3.742v-.072c0-2.446 2.087-3.886 5.182-3.886 1.655 0 2.807.216 3.958.504v-.503c0-2.375-1.44-3.6-3.886-3.6-1.44 0-2.663.36-3.742.937l-.432-1.008c1.295-.575 2.59-1.008 4.246-1.008 3.022 0 4.966 1.584 4.966 4.68v7.41h-1.152zm.072-5.83c-1.008-.288-2.303-.504-4.03-.504-2.52 0-3.886 1.15-3.886 2.735v.072c0 1.728 1.655 2.735 3.455 2.735 2.447 0 4.462-1.512 4.462-3.67v-1.367zM382.872 347.68v-7.054c0-2.446-1.368-4.03-3.742-4.03-2.303 0-4.103 1.8-4.103 4.246v6.837h-1.15v-11.875h1.15v2.23c.792-1.367 2.087-2.52 4.318-2.52 3.022 0 4.75 2.016 4.75 4.895v7.27h-1.223zM397.985 347.68v-2.663c-1.008 1.583-2.52 2.95-4.895 2.95-2.878 0-5.757-2.303-5.757-6.19v-.07c0-3.887 2.88-6.19 5.757-6.19 2.375 0 3.887 1.368 4.895 2.808v-7.7h1.15v16.984h-1.15v.07zm.072-5.974c0-3.023-2.375-5.11-4.822-5.11-2.59 0-4.678 1.87-4.678 5.038v.072c0 3.094 2.16 5.11 4.678 5.11 2.447 0 4.822-2.087 4.822-5.11zM423.317 347.68l-11.442-14.467v14.466h-1.15v-16.266h1.15l11.227 14.178v-14.178h1.15v16.265h-.935zM433.897 346.888c1.87 0 3.095-.792 4.102-1.87l.79.72c-1.223 1.294-2.662 2.23-4.893 2.23-3.095 0-5.83-2.52-5.83-6.19v-.07c0-3.456 2.447-6.19 5.614-6.19 3.312 0 5.47 2.734 5.47 6.19v.502h-9.86c.146 2.95 2.304 4.678 4.607 4.678zm3.958-5.758c-.145-2.375-1.512-4.606-4.246-4.606-2.376 0-4.175 1.943-4.392 4.606h8.637zM454.192 347.75h-1.008l-3.526-10.146-3.526 10.147h-1.008l-4.318-11.945h1.296l3.6 10.435 3.598-10.507h.936l3.598 10.507 3.6-10.435h1.223l-4.465 11.946z"/></g><g fill="#FFF"><path d="M348.83 370.277l-2.086-4.534h-9.572l-2.087 4.534h-1.223l7.557-16.41h1.15l7.557 16.41h-1.296zm-6.91-15.042l-4.317 9.43h8.564l-4.246-9.43zM359.338 370.565c-2.375 0-3.886-1.368-4.894-2.808v6.262h-1.08V358.4h1.152v2.663c1.007-1.584 2.52-2.95 4.894-2.95 2.88 0 5.758 2.302 5.758 6.188v.072c-.073 3.887-2.95 6.19-5.83 6.19zm4.534-6.19c0-3.094-2.16-5.11-4.678-5.11-2.447 0-4.822 2.088-4.822 5.11v.072c0 3.023 2.375 5.11 4.822 5.11 2.663-.072 4.678-1.943 4.678-5.18zM376.826 370.277v-1.943c-.792 1.15-2.303 2.23-4.534 2.23-2.23 0-4.606-1.223-4.606-3.742v-.07c0-2.448 2.087-3.888 5.182-3.888 1.655 0 2.807.216 3.958.504v-.504c0-2.375-1.44-3.6-3.886-3.6-1.44 0-2.663.36-3.742.937l-.432-1.006c1.295-.576 2.59-1.008 4.246-1.008 3.023 0 4.966 1.583 4.966 4.678v7.413h-1.152zm0-5.757c-1.007-.288-2.303-.504-4.03-.504-2.52 0-3.886 1.15-3.886 2.735v.072c0 1.728 1.655 2.735 3.455 2.735 2.447 0 4.462-1.512 4.462-3.67v-1.367zM388.34 359.48c-2.734 0-5.11 2.09-5.11 5.902v4.895h-1.15v-11.875h1.15v3.383c.937-2.088 2.88-3.67 5.254-3.526v1.222h-.143zM395.322 370.493c-1.872 0-3.31-1.008-3.31-3.24v-7.77h-1.73v-1.08h1.73v-3.814h1.15v3.813h4.174v1.08h-4.174v7.628c0 1.73 1.007 2.304 2.375 2.304.575 0 1.08-.144 1.728-.432v1.08c-.648.287-1.223.43-1.943.43zM417.488 370.277v-7.053c0-2.59-1.295-4.03-3.526-4.03-2.016 0-3.742 1.51-3.742 4.174v6.91h-1.15v-7.126c0-2.447-1.37-3.958-3.456-3.958s-3.814 1.87-3.814 4.246v6.837h-1.15v-11.875h1.15v2.087c.792-1.225 1.87-2.376 3.96-2.376 2.086 0 3.38 1.15 4.03 2.59.79-1.294 2.014-2.59 4.316-2.59 2.807 0 4.534 1.943 4.534 4.966v7.197h-1.152zM427.852 369.485c1.87 0 3.095-.792 4.103-1.87l.792.72c-1.224 1.294-2.663 2.23-4.895 2.23-3.095 0-5.83-2.52-5.83-6.19v-.07c0-3.455 2.447-6.19 5.614-6.19 3.31 0 5.47 2.735 5.47 6.19v.503h-9.932c.216 3.022 2.303 4.677 4.678 4.677zm3.958-5.685c-.144-2.375-1.51-4.605-4.246-4.605-2.375 0-4.174 1.942-4.39 4.605h8.636zM445.412 370.277v-7.053c0-2.447-1.367-4.03-3.742-4.03-2.303 0-4.103 1.8-4.103 4.246v6.837h-1.15v-11.875h1.15v2.23c.792-1.367 2.087-2.52 4.318-2.52 3.022 0 4.75 2.017 4.75 4.895v7.27h-1.223zM454.624 370.493c-1.87 0-3.31-1.008-3.31-3.24v-7.77h-1.73v-1.08h1.73v-3.814h1.15v3.813h4.174v1.08h-4.174v7.628c0 1.73 1.008 2.304 2.375 2.304.575 0 1.078-.144 1.727-.432v1.08c-.648.287-1.223.43-1.943.43zM463.764 370.565c-1.727 0-3.598-.72-4.894-1.728l.647-.936c1.296 1.01 2.735 1.584 4.246 1.584 1.584 0 2.88-.863 2.88-2.23v-.072c0-1.367-1.513-1.943-3.167-2.375-1.943-.576-4.103-1.15-4.103-3.238v-.073c0-1.943 1.583-3.31 3.886-3.31 1.438 0 3.022.503 4.245 1.294l-.575.937c-1.08-.72-2.375-1.15-3.67-1.15-1.656 0-2.735.863-2.735 2.086v.072c0 1.296 1.583 1.8 3.31 2.303 1.944.504 3.888 1.224 3.888 3.31v.073c.143 2.087-1.656 3.455-3.96 3.455z"/></g></svg>