<svg xmlns="http://www.w3.org/2000/svg" xmlns:xlink="http://www.w3.org/1999/xlink" viewBox="0 0 646.8 766.7"><defs><path id="a" d="M0 0h646.8v766.7H0z"/></defs><clipPath id="b"><use xlink:href="#a" overflow="visible"/></clipPath><g clip-path="url(#b)"><defs><path id="c" d="M0 0h646.8v766.7H0z"/></defs><clipPath id="d"><use xlink:href="#c" overflow="visible"/></clipPath><g clip-path="url(#d)"><defs><path id="e" d="M77.7 382.3h578.9v385.6H77.7z"/></defs><clipPath id="f"><use xlink:href="#e" overflow="visible"/></clipPath><path clip-path="url(#f)" fill="#74C3D6" d="M573.4 383.3c-41.9 30.7-98.4 43.5-161.5 43.5H87.6v.6H412c83.6 0 147.3 25.9 147.3 125.4 0 104.5-71.7 126.4-147.3 126.4H87.6v87.6H412c92.5 0 234.8-36.8 234.8-213.9 0-82.3-28.1-136.4-73.4-169.6"/></g><g opacity=".65" clip-path="url(#d)"><defs><path id="g" d="M-9.8-1.1h666.4v768.9H-9.8z"/></defs><clipPath id="h"><use xlink:href="#g" overflow="visible"/></clipPath><path clip-path="url(#h)" fill="#FFF" d="M87.6 87.6H412c75.6 0 147.3 21.9 147.3 126.4 0 99.5-63.7 125.4-147.3 125.4H87.6V87.6zM411.9 0H0v766.7h87.6V426.8H412c63.1 0 119.6-12.8 161.5-43.5 45.3-33.2 73.4-87.2 73.4-169.4C646.8 36.8 504.4 0 411.9 0"/></g></g></svg>