<svg xmlns="http://www.w3.org/2000/svg" xmlns:xlink="http://www.w3.org/1999/xlink" width="612" height="792" viewBox="0 0 612 792"><defs><path id="a" d="M0 33.32h612v725.454H0z"/></defs><clipPath id="b"><use xlink:href="#a" overflow="visible"/></clipPath><g clip-path="url(#b)"><defs><path id="c" d="M0 33.32h612v725.454H0z"/></defs><clipPath id="d"><use xlink:href="#c" overflow="visible"/></clipPath><g clip-path="url(#d)"><g opacity=".65"><defs><path id="e" opacity=".65" d="M73.534 394.964H621.32V759.81H73.535z"/></defs><clipPath id="f"><use xlink:href="#e" overflow="visible"/></clipPath><path clip-path="url(#f)" fill="#74C3D6" d="M542.515 395.906C502.875 425 449.397 437.05 389.703 437.05h7.626l-3.767.566h-3.767c79.09 0 139.348 24.48 139.348 118.634 0 98.86-67.885 119.575-139.348 119.575H82.856v82.855h306.94C477.36 758.68 612 723.844 612 556.25c0-77.677-26.552-128.896-69.485-160.344"/></g><defs><path id="g" d="M0 33.32h612v725.454H0z"/></defs><clipPath id="h"><use xlink:href="#g" overflow="visible"/></clipPath><g opacity=".65" clip-path="url(#h)"><defs><path id="i" d="M-9.227 32.19H621.32v727.525H-9.226z"/></defs><clipPath id="j"><use xlink:href="#i" overflow="visible"/></clipPath><path clip-path="url(#j)" fill="#FFF" d="M82.855 116.175h306.94c71.558 0 139.35 20.714 139.35 119.575 0 94.154-60.26 118.634-139.35 118.634H82.856v-238.21zM389.703 33.32H0v725.454h82.855V437.145h306.94C449.49 437.146 502.97 425 542.61 396c42.84-31.447 69.485-82.48 69.485-160.25C612 68.062 477.266 33.32 389.703 33.32"/></g></g></g></svg>