<svg xmlns="http://www.w3.org/2000/svg" xmlns:xlink="http://www.w3.org/1999/xlink" viewBox="0 0 650 775"><defs><path id="a" d="M0 2.3h650v770.5H0z"/></defs><clipPath id="b"><use xlink:href="#a" overflow="visible"/></clipPath><g clip-path="url(#b)"><defs><path id="c" d="M0 2.3h650v770.5H0z"/></defs><clipPath id="d"><use xlink:href="#c" overflow="visible"/></clipPath><g clip-path="url(#d)"><defs><path id="e" d="M78.1 386.4h581.8v387.5H78.1z"/></defs><clipPath id="f"><use xlink:href="#e" overflow="visible"/></clipPath><path clip-path="url(#f)" fill="#74C3D6" d="M576.2 387.4c-42.1 30.9-98.9 43.7-162.3 43.7h8.1l-4 .6h-4c84 0 148 26 148 126 0 105-72.1 127-148 127H88v88h326c93 0 236-37 236-215 0-82.5-28.2-136.9-73.8-170.3"/><g><defs><path id="g" d="M0 2.3h650v770.5H0z"/></defs><clipPath id="h"><use xlink:href="#g" overflow="visible"/></clipPath><g opacity=".65" clip-path="url(#h)"><defs><path id="i" d="M-9.8 1.1h669.7v772.7H-9.8z"/></defs><clipPath id="j"><use xlink:href="#i" overflow="visible"/></clipPath><path clip-path="url(#j)" fill="#FFF" d="M88 90.3h326c76 0 148 22 148 127 0 100-64 126-148 126H88v-253zm325.9-88H0v770.5h88V431.2h326c63.4 0 120.2-12.9 162.3-43.7 45.5-33.4 73.8-87.6 73.8-170.2-.1-178.1-143.2-215-236.2-215"/></g></g></g></g></svg>