<svg xmlns="http://www.w3.org/2000/svg" xmlns:xlink="http://www.w3.org/1999/xlink" width="800" height="600" viewBox="0 0 800 600"><defs><path id="a" d="M1.515 0h796.97v600H1.516z"/></defs><clipPath id="b"><use xlink:href="#a" overflow="visible"/></clipPath><path clip-path="url(#b)" fill="#74C3D6" d="M1.515 459.27h15.718v-82.274H1.515v-10.07h46.418c16.947 0 39.788.737 39.788 27.262 0 11.053-7.613 20.385-20.384 22.35v.246c14.49-.246 23.577 8.35 23.577 23.577 0 25.298-20.385 28.736-42.98 28.736H1.515v-9.825zm29.717-46.663h16.456c13.262 0 25.296-2.456 25.296-18.42 0-16.945-14.736-17.19-25.05-17.19H31.23v35.61zm0 46.664h16.7c14.492 0 28.245-2.455 28.245-18.664 0-15.473-13.017-17.93-28.244-17.93h-16.7v36.595z"/><path fill="#74C3D6" d="M133.156 459.27h15.72v-82.274h-15.72v-10.07h45.19v10.07h-15.718v82.275h15.718v10.072h-45.19"/><defs><path id="c" d="M1.515 0h796.97v600H1.516z"/></defs><clipPath id="d"><use xlink:href="#c" overflow="visible"/></clipPath><path clip-path="url(#d)" fill="#74C3D6" d="M220.59 469.342v-34.63h12.28c0 15.964 9.332 26.033 24.804 26.033 9.824 0 21.367-5.648 21.367-19.156 0-10.563-9.086-14.246-25.05-18.912-20.14-5.65-33.893-11.544-33.893-29.963 0-18.912 16.455-27.754 34.63-27.754 9.086 0 19.156 3.93 23.577 11.545h.49v-9.824h11.79v33.894H278.55c.736-16.455-8.105-25.296-24.07-25.296-9.823 0-19.893 5.156-19.893 17.683 0 8.597 9.824 13.018 27.016 18.42 19.648 6.14 31.928 11.3 31.928 30.455 0 18.666-14.98 29.227-34.383 29.227-11.543 0-20.876-4.175-26.524-13.508h-.246v11.79H220.59v-.002z"/><path fill="#74C3D6" d="M445.312 459.27v10.072h-44.944v-10.07h15.474v-36.594H362.3v36.593h15.72v10.072h-45.19v-10.07h15.717v-82.276H332.83v-10.07h45.19v10.07H362.3v35.61h53.542v-35.61h-15.474v-10.07h44.944v10.07h-15.717v82.275"/><defs><path id="e" d="M1.515 0h796.97v600H1.516z"/></defs><clipPath id="f"><use xlink:href="#e" overflow="visible"/></clipPath><path clip-path="url(#f)" fill="#74C3D6" d="M526.606 470.815c-34.138 0-52.067-19.894-52.067-52.805 0-32.91 17.93-52.804 52.066-52.804 34.14 0 52.067 19.894 52.067 52.804 0 32.912-17.928 52.805-52.067 52.805m0-95.538c-23.577 0-37.33 13.998-37.33 42.733 0 24.56 13.753 42.734 37.33 42.734s37.33-18.174 37.33-42.734c.002-28.735-13.752-42.733-37.33-42.733"/><defs><path id="g" d="M1.515 0h796.97v600H1.516z"/></defs><clipPath id="h"><use xlink:href="#g" overflow="visible"/></clipPath><path clip-path="url(#h)" fill="#74C3D6" d="M607.9 459.27h15.72v-82.274H607.9v-10.07h44.453c21.613 0 41.26 4.422 41.26 30.455s-19.646 30.7-41.26 30.7h-15.227v31.19h18.91v10.07H607.9v-10.07zm29.472-41.26H652.6c13.262 0 26.524-1.473 26.524-20.63s-13.263-20.63-26.524-20.63h-15.228v41.26z"/><g><defs><path id="i" d="M1.515 0h796.97v600H1.516z"/></defs><clipPath id="j"><use xlink:href="#i" overflow="visible"/></clipPath><path clip-path="url(#j)" fill="#74C3D6" d="M725.05 469.342v-34.63h12.28c0 15.964 9.334 26.033 24.807 26.033 9.824 0 21.367-5.648 21.367-19.156 0-10.563-9.087-14.246-25.05-18.912-20.14-5.65-33.895-11.544-33.895-29.963 0-18.912 16.455-27.754 34.63-27.754 9.086 0 19.156 3.93 23.577 11.545h.49v-9.824h11.79v33.894H783.01c.737-16.455-8.104-25.296-24.068-25.296-9.824 0-19.894 5.156-19.894 17.683 0 8.597 9.823 13.018 27.016 18.42 19.648 6.14 31.928 11.3 31.928 30.455 0 18.666-14.98 29.227-34.384 29.227-11.543 0-20.876-4.175-26.524-13.508h-.49v11.79H725.05v-.002z"/></g><g><defs><path id="k" d="M1.515 0h796.97v600H1.516z"/></defs><clipPath id="l"><use xlink:href="#k" overflow="visible"/></clipPath><path clip-path="url(#l)" fill="#929497" d="M248.588 577.896h-14.49v21.12h-6.877v-60.17h22.596c13.508 0 22.595 7.122 22.595 19.156-.244 13.264-11.05 19.894-23.822 19.894m.49-32.665h-15.226v26.526h14.736c10.07 0 16.455-5.403 16.455-13.263.246-8.84-6.14-13.262-15.964-13.262"/></g><path fill="#929497" d="M301.637 539.092h6.877v53.786h33.647v6.14h-40.523M427.875 599.018h-7.367l-7.123-15.964H380.72l-7.122 15.964h-6.877l27.508-60.663h6.385l27.262 60.663zm-30.7-52.558l-13.753 30.7h27.508l-13.754-30.7z"/><g><defs><path id="m" d="M1.515 0h796.97v600H1.516z"/></defs><clipPath id="n"><use xlink:href="#m" overflow="visible"/></clipPath><path clip-path="url(#n)" fill="#929497" d="M480.926 600.246c-17.438 0-30.21-13.754-30.21-30.945 0-17.19 12.772-31.19 30.455-31.19 10.807 0 17.44 3.93 23.332 9.578l-4.666 4.912c-5.157-4.912-10.807-8.35-18.91-8.35-13.264 0-23.332 10.806-23.332 24.805s10.068 24.806 23.332 24.806c8.35 0 13.753-3.19 19.402-8.595l4.42 4.42c-6.14 6.14-13.017 10.56-23.822 10.56"/></g><path fill="#929497" d="M577.445 545.23h-36.84v20.386h32.91v6.14h-32.91v21.122h37.333v6.14h-43.963v-59.926h43.47"/><g><defs><path id="o" d="M18.707 0h755.956v569.3H18.707z"/></defs><clipPath id="p"><use xlink:href="#o" overflow="visible"/></clipPath><path clip-path="url(#p)" fill="#74C3D6" d="M450.717 135.08c-8.842 6.63-20.877 9.333-34.385 9.333h-69.26 69.26c17.93 0 31.438 5.403 31.438 26.77 0 22.35-15.228 27.017-31.438 27.017h-69.26v18.666h69.26c19.648 0 50.103-7.86 50.103-45.68 0-17.44-5.894-28.983-15.718-36.106"/><g><defs><path id="q" d="M18.707 0h755.956v569.3H18.707z"/></defs><clipPath id="r"><use xlink:href="#q" overflow="visible"/></clipPath><path clip-path="url(#r)" fill="#929497" d="M347.32 72.207h69.258c16.21 0 31.437 4.667 31.437 27.016 0 21.122-13.508 26.77-31.437 26.77h-69.26V72.208zm69.012-18.912H328.407v163.57h18.666v-72.207h69.26c13.507 0 25.542-2.703 34.384-9.334 9.578-7.123 15.718-18.666 15.718-36.103 0-38.065-30.455-45.925-50.103-45.925"/></g></g><path fill="#74C3D6" d="M328.162 265.494h145.395v19.894H328.162z"/><path fill="#929497" d="M328.162 0h145.395v19.894H328.162zM273.885 0h19.894v284.896h-19.895z"/><path fill="#74C3D6" d="M506.713 0h19.894v284.896h-19.894z"/></svg>