<svg xmlns="http://www.w3.org/2000/svg" xmlns:xlink="http://www.w3.org/1999/xlink" width="252" height="284.571" viewBox="273.633 0.49 252 284.571"><defs><path id="a" d="M2.04.49h753.797v567.673H2.04z"/></defs><clipPath id="b"><use xlink:href="#a" overflow="visible"/></clipPath><path clip-path="url(#b)" fill="#74C3D6" d="M432.816 135.184C424 141.796 412 144.49 398.53 144.49h-69.06 69.06c17.878 0 31.348 5.388 31.348 26.694 0 22.286-15.184 26.94-31.348 26.94h-69.06v18.61h69.06c19.592 0 49.96-7.836 49.96-45.55 0-17.388-5.878-28.898-15.674-36"/><defs><path id="c" d="M2.04.49h753.797v567.673H2.04z"/></defs><clipPath id="d"><use xlink:href="#c" overflow="visible"/></clipPath><path clip-path="url(#d)" fill="#929497" d="M329.714 72.49h69.06c16.164 0 31.348 4.653 31.348 26.94 0 21.06-13.47 26.693-31.347 26.693h-69.06V72.49zm68.816-18.857h-87.673v163.102h18.612v-72h69.06c13.47 0 25.47-2.694 34.286-9.306 9.55-7.103 15.674-18.613 15.674-36 0-37.96-30.368-45.797-49.96-45.797"/><path fill="#74C3D6" d="M327.755 265.225h144.98v19.836h-144.98z"/><path fill="#929497" d="M327.755.49h144.98v19.837h-144.98zM273.633.49h19.836v284.082h-19.837z"/><path fill="#74C3D6" d="M505.796.49h19.837v284.082h-19.837z"/></svg>