<svg xmlns="http://www.w3.org/2000/svg" xmlns:xlink="http://www.w3.org/1999/xlink" viewBox="0 0 325 245"><defs><path id="a" d="M0 .2h324.5v244.3H0z"/></defs><clipPath id="b"><use xlink:href="#a" overflow="visible"/></clipPath><path clip-path="url(#b)" fill="#74C3D6" d="M0 187.2h6.4v-33.5H0v-4.1h18.9c6.9 0 16.2.3 16.2 11.1 0 4.5-3.1 8.3-8.3 9.1v.1c5.9-.1 9.6 3.4 9.6 9.6 0 10.3-8.3 11.7-17.5 11.7H0v-4zm12.1-19h6.7c5.4 0 10.3-1 10.3-7.5 0-6.9-6-7-10.2-7h-6.8v14.5zm0 19h6.8c5.9 0 11.5-1 11.5-7.6 0-6.3-5.3-7.3-11.5-7.3h-6.8v14.9z"/><path fill="#74C3D6" d="M53.6 187.2H60v-33.5h-6.4v-4.1H72v4.1h-6.4v33.5H72v4.1H53.6"/><defs><path id="c" d="M0 .2h324.5v244.3H0z"/></defs><clipPath id="d"><use xlink:href="#c" overflow="visible"/></clipPath><path clip-path="url(#d)" fill="#74C3D6" d="M89.2 191.3v-14.1h5c0 6.5 3.8 10.6 10.1 10.6 4 0 8.7-2.3 8.7-7.8 0-4.3-3.7-5.8-10.2-7.7-8.2-2.3-13.8-4.7-13.8-12.2 0-7.7 6.7-11.3 14.1-11.3 3.7 0 7.8 1.6 9.6 4.7h.2v-4h4.8v13.8h-4.9c.3-6.7-3.3-10.3-9.8-10.3-4 0-8.1 2.1-8.1 7.2 0 3.5 4 5.3 11 7.5 8 2.5 13 4.6 13 12.4 0 7.6-6.1 11.9-14 11.9-4.7 0-8.5-1.7-10.8-5.5H94v4.8h-4.8z"/><path fill="#74C3D6" d="M180.7 187.2v4.1h-18.3v-4.1h6.3v-14.9h-21.8v14.9h6.4v4.1h-18.4v-4.1h6.4v-33.5h-6.4v-4.1h18.4v4.1h-6.4v14.5h21.8v-14.5h-6.3v-4.1h18.3v4.1h-6.4v33.5"/><defs><path id="e" d="M0 .2h324.5v244.3H0z"/></defs><clipPath id="f"><use xlink:href="#e" overflow="visible"/></clipPath><path clip-path="url(#f)" fill="#74C3D6" d="M213.8 191.9c-13.9 0-21.2-8.1-21.2-21.5s7.3-21.5 21.2-21.5c13.9 0 21.2 8.1 21.2 21.5s-7.3 21.5-21.2 21.5m0-38.9c-9.6 0-15.2 5.7-15.2 17.4 0 10 5.6 17.4 15.2 17.4s15.2-7.4 15.2-17.4c0-11.7-5.6-17.4-15.2-17.4M246.9 187.2h6.4v-33.5h-6.4v-4.1H265c8.8 0 16.8 1.8 16.8 12.4s-8 12.5-16.8 12.5h-6.2v12.7h7.7v4.1h-19.6v-4.1zm12-16.8h6.2c5.4 0 10.8-.6 10.8-8.4 0-7.8-5.4-8.4-10.8-8.4h-6.2v16.8zM294.6 191.3v-14.1h5c0 6.5 3.8 10.6 10.1 10.6 4 0 8.7-2.3 8.7-7.8 0-4.3-3.7-5.8-10.2-7.7-8.2-2.3-13.8-4.7-13.8-12.2 0-7.7 6.7-11.3 14.1-11.3 3.7 0 7.8 1.6 9.6 4.7h.2v-4h4.8v13.8h-4.9c.3-6.7-3.3-10.3-9.8-10.3-4 0-8.1 2.1-8.1 7.2 0 3.5 4 5.3 11 7.5 8 2.5 13 4.6 13 12.4 0 7.6-6.1 11.9-14 11.9-4.7 0-8.5-1.7-10.8-5.5h-.2v4.8h-4.7z"/><path clip-path="url(#f)" fill="#929497" d="M100.6 235.5h-5.9v8.6h-2.8v-24.5h9.2c5.5 0 9.2 2.9 9.2 7.8-.1 5.4-4.5 8.1-9.7 8.1m.2-13.3h-6.2V233h6c4.1 0 6.7-2.2 6.7-5.4.1-3.6-2.5-5.4-6.5-5.4"/><path fill="#929497" d="M122.2 219.7h2.8v21.9h13.7v2.5h-16.5M173.6 244.1h-3l-2.9-6.5h-13.3l-2.9 6.5h-2.8l11.2-24.7h2.6l11.1 24.7zm-12.5-21.4l-5.6 12.5h11.2l-5.6-12.5z"/><g><defs><path id="g" d="M0 .2h324.5v244.3H0z"/></defs><clipPath id="h"><use xlink:href="#g" overflow="visible"/></clipPath><path clip-path="url(#h)" fill="#929497" d="M195.2 244.6c-7.1 0-12.3-5.6-12.3-12.6s5.2-12.7 12.4-12.7c4.4 0 7.1 1.6 9.5 3.9l-1.9 2c-2.1-2-4.4-3.4-7.7-3.4-5.4 0-9.5 4.4-9.5 10.1 0 5.7 4.1 10.1 9.5 10.1 3.4 0 5.6-1.3 7.9-3.5l1.8 1.8c-2.5 2.5-5.3 4.3-9.7 4.3"/></g><path fill="#929497" d="M234.5 222.2h-15v8.3h13.4v2.5h-13.4v8.6h15.2v2.5h-17.9v-24.4h17.7"/><g><defs><path id="i" d="M0 .2h307.8V232H0z"/></defs><clipPath id="j"><use xlink:href="#i" overflow="visible"/></clipPath><path clip-path="url(#j)" fill="#74C3D6" d="M175.9 55.2c-3.6 2.7-8.5 3.8-14 3.8h-28.2 28.2c7.3 0 12.8 2.2 12.8 10.9 0 9.1-6.2 11-12.8 11h-28.2v7.6h28.2c8 0 20.4-3.2 20.4-18.6 0-7.1-2.4-11.8-6.4-14.7"/><path clip-path="url(#j)" fill="#929497" d="M133.8 29.6H162c6.6 0 12.8 1.9 12.8 11 0 8.6-5.5 10.9-12.8 10.9h-28.2V29.6zm28.1-7.7h-35.8v66.6h7.6V59.1h28.2c5.5 0 10.4-1.1 14-3.8 3.9-2.9 6.4-7.6 6.4-14.7 0-15.5-12.4-18.7-20.4-18.7"/></g><path fill="#74C3D6" d="M133 108.3h59.2v8.1H133z"/><path fill="#929497" d="M133 .2h59.2v8.1H133zM110.9.2h8.1v116h-8.1z"/><path fill="#74C3D6" d="M205.7.2h8.1v116h-8.1z"/></svg>